<?xml version="1.0" encoding="UTF-8" standalone="no"?>
<svg
   xmlns:dc="http://purl.org/dc/elements/1.1/"
   xmlns:cc="http://creativecommons.org/ns#"
   xmlns:rdf="http://www.w3.org/1999/02/22-rdf-syntax-ns#"
   xmlns:svg="http://www.w3.org/2000/svg"
   xmlns="http://www.w3.org/2000/svg"
   xmlns:sodipodi="http://sodipodi.sourceforge.net/DTD/sodipodi-0.dtd"
   xmlns:inkscape="http://www.inkscape.org/namespaces/inkscape"
   viewBox="0 0 3507 2480"
   width="296.926mm"
   height="209.973mm"
   version="1.2"
   id="svg48338"
   sodipodi:docname="Blank_Somaliland_Map_(districts)g.svg"
   inkscape:version="1.0.2 (e86c870879, 2021-01-15, custom)">
  <metadata
     id="metadata48342">
    <rdf:RDF>
      <cc:Work
         rdf:about="">
        <dc:format>image/svg+xml</dc:format>
        <dc:type
           rdf:resource="http://purl.org/dc/dcmitype/StillImage" />
        <dc:title>Qt SVG Document</dc:title>
      </cc:Work>
    </rdf:RDF>
  </metadata>
  <sodipodi:namedview
     pagecolor="#ffffff"
     bordercolor="#666666"
     borderopacity="1"
     objecttolerance="10"
     gridtolerance="10"
     guidetolerance="10"
     inkscape:pageopacity="0"
     inkscape:pageshadow="2"
     inkscape:window-width="1920"
     inkscape:window-height="1001"
     id="namedview48340"
     showgrid="false"
     inkscape:zoom="0.52293428"
     inkscape:cx="561.11999"
     inkscape:cy="396.79938"
     inkscape:window-x="-9"
     inkscape:window-y="-9"
     inkscape:window-maximized="1"
     inkscape:current-layer="svg48338" />
  <title
     id="title48242">Qt SVG Document</title>
  <desc
     id="desc48244">Generated with Qt</desc>
  <defs
     id="defs48246" />
  <g
     stroke-width="1"
     fill="none"
     stroke="black"
     stroke-linecap="square"
     stroke-linejoin="bevel"
     fill-rule="evenodd"
     id="g48336">
    <g
       font-family=".SF NS Text"
       font-weight="400"
       stroke-width="1"
       fill="none"
       stroke="#000000"
       transform="matrix(1,0,0,1,0,0)"
       stroke-linecap="square"
       stroke-linejoin="bevel"
       font-size="54.1667"
       font-style="normal"
       stroke-opacity="1"
       id="g48248" />
    <g
       font-family=".SF NS Text"
       font-weight="400"
       stroke-width="1"
       fill="none"
       stroke="#000000"
       transform="matrix(1,0,0,1,0,0)"
       stroke-linecap="square"
       stroke-linejoin="bevel"
       font-size="54.1667"
       font-style="normal"
       stroke-opacity="1"
       id="g48250" />
    <g
       font-family=".SF NS Text"
       font-weight="400"
       stroke-width="1"
       fill="none"
       stroke="#000000"
       transform="matrix(11.8081,0,0,11.8081,0,0)"
       stroke-linecap="square"
       stroke-linejoin="bevel"
       font-size="54.1667"
       font-style="normal"
       stroke-opacity="1"
       id="g48252" />
    <g
       font-family=".SF NS Text"
       font-weight="400"
       stroke-width="1"
       fill="none"
       stroke="#000000"
       transform="matrix(0.999751,0,0,0.999751,0,0)"
       stroke-linecap="square"
       stroke-linejoin="bevel"
       font-size="54.1667"
       font-style="normal"
       stroke-opacity="1"
       id="g48254" />
    <g
       fill-opacity="0"
       font-family=".SF NS Text"
       font-weight="400"
       fill="#ffffff"
       stroke="none"
       transform="matrix(0.999751,0,0,0.999751,0,0)"
       font-size="54.1667"
       font-style="normal"
       id="g48258">
      <path
         vector-effect="none"
         fill-rule="evenodd"
         d="M-2,-2 L3510,-2 L3510,2483 L-2,2483 L-2,-2"
         id="path48256" />
    </g>
    <g
       font-family=".SF NS Text"
       font-weight="400"
       stroke-width="1"
       fill="none"
       stroke="#000000"
       transform="matrix(0.999751,0,0,0.999751,0,0)"
       stroke-linecap="square"
       stroke-linejoin="bevel"
       font-size="54.1667"
       font-style="normal"
       stroke-opacity="1"
       id="g48260" />
    <g
       font-family=".SF NS Text"
       font-weight="400"
       stroke-width="1"
       fill="none"
       stroke="#000000"
       transform="matrix(11.8081,0,0,11.8081,0,0)"
       stroke-linecap="square"
       stroke-linejoin="bevel"
       font-size="54.1667"
       font-style="normal"
       stroke-opacity="1"
       id="g48262" />
    <g
       font-family=".SF NS Text"
       font-weight="400"
       stroke-width="1"
       fill="none"
       stroke="#000000"
       transform="matrix(11.8081,0,0,11.8081,0,0)"
       stroke-linecap="square"
       stroke-linejoin="bevel"
       font-size="54.1667"
       font-style="normal"
       stroke-opacity="1"
       id="g48264" />
    <g
       font-family=".SF NS Text"
       font-weight="400"
       stroke-width="1"
       fill="none"
       stroke="#000000"
       transform="matrix(11.8081,0,0,11.8081,0,0)"
       stroke-linecap="square"
       stroke-linejoin="bevel"
       font-size="54.1667"
       font-style="normal"
       stroke-opacity="1"
       id="g48266" />
    <g
       font-family=".SF NS Text"
       font-weight="400"
       stroke-width="1"
       fill="none"
       stroke="#000000"
       transform="matrix(11.8081,0,0,11.8081,0,0)"
       stroke-linecap="square"
       stroke-linejoin="bevel"
       font-size="54.1667"
       font-style="normal"
       stroke-opacity="1"
       id="g48268" />
    <g
       font-family=".SF NS Text"
       font-weight="400"
       stroke-width="1"
       fill="none"
       stroke="#000000"
       transform="matrix(11.8081,0,0,11.8081,-275.212,-381.938)"
       stroke-linecap="square"
       stroke-linejoin="bevel"
       font-size="54.1667"
       font-style="normal"
       stroke-opacity="1"
       id="g48270" />
    <g
       font-family=".SF NS Text"
       font-weight="400"
       stroke-width="1"
       fill="none"
       stroke="#000000"
       transform="matrix(11.8081,0,0,11.8081,-275.212,-381.938)"
       stroke-linecap="square"
       stroke-linejoin="bevel"
       font-size="54.1667"
       font-style="normal"
       stroke-opacity="1"
       id="g48272" />
    <g
       fill-opacity="0"
       font-family=".SF NS Text"
       font-weight="400"
       fill="#000000"
       stroke="none"
       transform="matrix(0.999751,0,0,0.999751,-275.212,-381.938)"
       font-size="54.1667"
       font-style="normal"
       id="g48276">
      <rect
         y="0"
         width="4064"
         x="0"
         height="3402"
         id="rect48274" />
    </g>
    <g
       fill-opacity="1"
       font-family=".SF NS Text"
       font-weight="400"
       stroke-width="3.07087"
       fill="#f2efea"
       stroke="#232323"
       transform="matrix(0.999751,0,0,0.999751,-275.212,-381.938)"
       stroke-linecap="square"
       stroke-linejoin="bevel"
       font-size="54.1667"
       font-style="normal"
       stroke-opacity="1"
       id="g48320">
      <path
         vector-effect="none"
         fill-rule="evenodd"
         d="M658.046,1577.97 L647.291,1690.91 L668.803,1712.42 L636.534,1771.57 L625.552,1789.04 L625.084,1789.74 L625.046,1789.56 L621.9,1771.75 L614.489,1729.85 L614.01,1719.73 L610.745,1704.81 L607.454,1690 L567.084,1668.47 L559.915,1665.53 L556.51,1664.13 L549.917,1659.46 L547.872,1659.71 L547.426,1659.76 L547.008,1663.1 L547.007,1663.11 L543.592,1666.52 L538.601,1666.51 L531.34,1665.19 L523.009,1661.05 L517.421,1656.72 L515.501,1654.42 L510.381,1641.3 L504.357,1625.87 L502.55,1623.19 L495.601,1605.37 L485.027,1578.25 L478.659,1561.92 L475.029,1556.2 L469.301,1550.94 L465.649,1548.54 L457.808,1542.42 L438.769,1523.93 L438.107,1523.33 L405.38,1493.98 L396.85,1484.76 L393.107,1479.48 L390.434,1474.92 L379.285,1455.92 L371.121,1434.2 L371.648,1433.78 L394.506,1416.64 L588.129,1335.97 L668.805,1319.84 L679.562,1384.37 L658.046,1577.97"
         id="path48278" />
      <path
         vector-effect="none"
         fill-rule="evenodd"
         d="M1134.38,1350.91 L1088.32,1432.77 L1029.16,1513.44 L910.833,1448.9 L878.562,1443.53 L857.051,1465.04 L754.857,1610.24 L668.803,1712.42 L647.291,1690.91 L658.046,1577.97 L679.562,1384.37 L717.21,1400.5 L1046.08,1283.82 L1051.17,1290.78 L1058.81,1297.8 L1066.41,1303.09 L1070.33,1305.24 L1077.48,1306.34 L1082.64,1308.1 L1087.06,1310.86 L1106.24,1326.44 L1115.6,1332.32 L1118.54,1335.36 L1124.39,1341.16 L1133.21,1349.89 L1134.38,1350.91"
         id="path48280" />
      <path
         vector-effect="none"
         fill-rule="evenodd"
         d="M1046.08,1283.82 L717.21,1400.5 L679.562,1384.37 L668.805,1319.84 L588.129,1335.97 L539.724,1233.79 L844.591,1102.4 L862.051,1119.97 L882.588,1143.36 L893.722,1156.05 L920.188,1183.33 L930.264,1192.65 L969.213,1225.5 L981.89,1237.12 L983.868,1238.93 L995.097,1243.9 L1004.46,1249.28 L1032.29,1271.61 L1038.24,1275.37 L1041.79,1277.98 L1046.08,1283.82"
         id="path48282" />
      <path
         vector-effect="none"
         fill-rule="evenodd"
         d="M638.779,817.445 L641.507,827.03 L647.406,838.278 L649.172,838.733 L654.094,834.669 L655.245,835.633 L659.847,845.054 L677.264,861.244 L679.568,863.297 L689.803,861.343 L699.26,863.736 L701.055,865.552 L701.527,869.87 L705.082,871.895 L709.893,874.017 L714.128,878.378 L716.514,878.574 L726.465,875.146 L731.14,871.213 L737.334,867.866 L739.975,868.181 L740.599,869.792 L740.639,869.897 L734.263,873.811 L733.961,873.997 L729.448,879.658 L728.594,886.353 L727.185,890.587 L727.648,894.534 L730.396,899.669 L731.003,904.479 L734.667,911.449 L734.821,924.058 L736.101,936.518 L738.122,942.907 L739.468,945.553 L746.897,960.154 L747.888,965.326 L749.726,969.121 L753.799,972.002 L755.816,972.577 L759.728,971.652 L759.247,971.436 L753.099,968.678 L751.56,967.103 L752.189,966.776 L753.294,966.201 L767.161,970.111 L768.314,971.323 L769.406,975.142 L773.199,988.407 L778.45,999.425 L783.505,1007.23 L791.244,1023.27 L800.084,1035.45 L805.829,1043.36 L817.29,1063.77 L823.724,1071.92 L832.051,1086.59 L836.7,1092.82 L841.587,1099.37 L844.591,1102.4 L539.724,1233.79 L588.129,1335.97 L394.506,1416.64 L371.648,1433.78 L371.121,1434.2 L364.333,1416.13 L363.483,1412.71 L357.352,1388.03 L341.878,1359.74 L338.56,1351.75 L338.135,1350.07 L333.053,1329.87 L329.164,1325.08 L324.974,1322.26 L317.025,1320.11 L310.13,1315.5 L307.092,1311.6 L305.489,1305.14 L302.783,1297.57 L298.9,1286.69 L298.814,1279.27 L299.895,1275.7 L304.166,1269.12 L309.673,1263.3 L309.851,1263.16 L320.107,1255.13 L320.207,1254.97 L328.75,1241.21 L343.734,1217.07 L355.588,1201.63 L360.391,1194.19 L367.587,1185.69 L367.796,1185.4 L383.749,1162.81 L391.698,1154.58 L396.275,1145.91 L399.62,1142.15 L402.75,1136.65 L407.741,1130.41 L420.923,1113.94 L432.368,1095.53 L448.597,1076.01 L452.12,1068.92 L468.189,1043.45 L609.782,819.066 L612.348,815.745 L616.409,815.341 L623.91,814.31 L626.941,815.232 L629.267,818.272 L631.549,819.335 L633.797,818.915 L633.92,818.549 L634.384,817.171 L633.959,815.078 L630.685,808.967 L629.15,807.642 L622.333,805.689 L623.301,804.184 L623.555,804.136 L625.55,803.763 L631.885,806.591 L634.716,809.744 L637.997,815.962 L638.779,817.445"
         id="path48284" />
      <path
         vector-effect="none"
         fill-rule="evenodd"
         d="M651.419,826.746 L649.474,826.787 L660.92,816.474 L662.758,811.639 L664.96,801.042 L665.323,801.299 L666.936,802.44 L664.291,814.964 L662.93,817.799 L662.896,817.87 L651.419,826.746"
         id="path48286" />
      <path
         vector-effect="none"
         fill-rule="evenodd"
         d="M720.991,837.672 L714.109,841.183 L713.837,837.331 L711.66,835.276 L716.009,827.886 L716.354,827.726 L718.241,826.849 L721.621,826.53 L723.527,827.602 L724.208,830.06 L723.178,834.534 L721.183,837.396 L720.991,837.672"
         id="path48288" />
      <path
         vector-effect="none"
         fill-rule="evenodd"
         d="M714.548,801.826 L712.074,803.364 L711.535,801.644 L712.466,798.409 L716.255,794 L716.497,793.875 L719.23,792.452 L720.137,793.793 L714.696,801.614 L714.548,801.826"
         id="path48290" />
      <path
         vector-effect="none"
         fill-rule="evenodd"
         d="M1378.75,2265.21 L1378.75,2265.94 L1322.78,2247.59 L1306.62,2242.29 L1289.86,2236.41 L1286.85,2234.36 L1277.36,2232.18 L1258.25,2226.01 L1246.13,2222.1 L1210.99,2209.64 L1193.52,2204.45 L1179.62,2200.32 L1152.73,2190.8 L1143.12,2188.51 L1133.23,2184.86 L1128.61,2183.54 L1103.74,2176.39 L1063.58,2162.84 L1027.8,2150.77 L1025.3,2150.7 L1010.28,2145.05 L1001.1,2137.41 L999.408,2136 L951.902,2089.18 L945.615,2082.07 L944.894,2081.21 L938.219,2073.2 L904.557,2038.66 L897.941,2031.9 L883.334,2016.97 L881.064,2015.65 L849.849,1983.75 L828.298,1961.74 L827.26,1959.78 L826.012,1959.44 L822.554,1954.94 L817.111,1950.48 L795.91,1950.16 L792.828,1950.11 L788.703,1949.21 L773.504,1942.73 L768.027,1941.25 L768.563,1940.72 L776.371,1932.91 L969.995,1680.15 L1061.43,1534.95 L1029.16,1513.44 L1088.32,1432.77 L1131.35,1454.28 L1400.27,1631.75 L1489.93,1637.03 L1475.57,1653.26 L1454.05,1680.15 L1378.75,1975.93 L1378.75,2265.21"
         id="path48292" />
      <path
         vector-effect="none"
         fill-rule="evenodd"
         d="M2008.71,1164.37 L2010.6,1165.83 L2014.73,1165.78 L2020.28,1169.17 L2020.62,1168.58 L2021.13,1167.67 L2019.78,1165.22 L2012.03,1160.37 L2010.12,1157.8 L2010.47,1155.94 L2010.92,1155.94 L2017.47,1155.85 L2035.46,1163.53 L2058.8,1178.57 L2069.15,1185.24 L2080.06,1187.57 L2095.2,1188.25 L2099.66,1189.59 L2088.71,1561.84 L2033.02,1551.72 L2029.54,1551.09 L1599.27,1513.44 L1489.93,1637.03 L1400.27,1631.75 L1131.35,1454.28 L1088.32,1432.77 L1134.38,1350.91 L1146.02,1361.05 L1162.12,1373.36 L1179.38,1380.7 L1198.99,1387.65 L1204.28,1389.52 L1227.86,1394.65 L1247.87,1389.72 L1266.13,1390.75 L1281.3,1394.06 L1288.34,1396.54 L1298.22,1397.23 L1305.4,1400.44 L1310.78,1401.21 L1326.86,1399.2 L1333.08,1399.56 L1338.23,1399.86 L1341.95,1398.19 L1350.41,1396.56 L1358.05,1390.74 L1361.4,1389.45 L1382.43,1384.89 L1392.41,1384.22 L1397.47,1380.8 L1411.68,1378.95 L1415.69,1380 L1416.96,1381.09 L1424.83,1380.96 L1428.34,1381.88 L1434.21,1381.54 L1436.42,1379.77 L1438.29,1379.62 L1441.95,1381.29 L1448.8,1380.31 L1452.18,1380.75 L1460.74,1384.68 L1470.87,1385.38 L1480.76,1386.82 L1481.27,1387.43 L1482.13,1386.8 L1501.85,1385.99 L1514.57,1384.42 L1524,1381.05 L1542.59,1372.22 L1544.96,1370.25 L1545.92,1369.45 L1545.96,1369.37 L1547.86,1365.71 L1547.2,1364.12 L1544.96,1363.54 L1540.96,1364.09 L1537.5,1366.74 L1537.11,1366.81 L1535.89,1367.02 L1535.49,1365.66 L1537.19,1362.92 L1537.48,1362.82 L1544.96,1360.15 L1547.75,1359.16 L1557.53,1354.19 L1570.71,1349.9 L1579.73,1343.95 L1579.93,1343.68 L1584.86,1337.07 L1585.35,1336.64 L1589.3,1333.16 L1590.54,1333.02 L1592.28,1331.88 L1614.58,1328.07 L1622.78,1325.23 L1632.67,1318.89 L1644.47,1314.39 L1658.38,1308.98 L1670.41,1303.11 L1675.35,1299.33 L1675.61,1299.06 L1682.85,1291.43 L1690.07,1281.31 L1697.6,1273.89 L1704.47,1267.12 L1719.46,1250.33 L1719.59,1250.31 L1727.31,1248.74 L1738.7,1249.68 L1755.64,1249.43 L1757.58,1249.4 L1763.34,1250.19 L1771.82,1248.95 L1781.7,1249.18 L1792.69,1248.28 L1796.04,1246.62 L1796.31,1246.28 L1803.16,1237.62 L1803.39,1237.52 L1808.87,1235.19 L1818.76,1233.9 L1821.6,1233.53 L1823.71,1232.51 L1824.1,1232.1 L1831.59,1224.36 L1831.7,1224.33 L1843.67,1220.73 L1848.75,1217.69 L1852.58,1214.8 L1852.63,1214.69 L1855.13,1209.32 L1858.95,1205.31 L1863.13,1197.33 L1863.57,1196.47 L1866.16,1193.96 L1866.21,1193.96 L1877.41,1193.69 L1884.63,1191.11 L1899.04,1184.37 L1905.89,1182.17 L1911.47,1179.13 L1924.23,1170.06 L1929.8,1165.9 L1951.34,1158.82 L1952.82,1157.56 L1952.83,1157.54 L1957.95,1147.97 L1961.15,1144.22 L1961.39,1144.1 L1964.63,1142.45 L1970.57,1141.8 L1976.24,1141.18 L1979.21,1138.79 L1980.71,1138.9 L1985.91,1143.53 L1997.01,1150.68 L2004.56,1153.92 L2006.35,1156.37 L2007.17,1161.55 L2008.71,1164.37"
         id="path48294" />
      <path
         vector-effect="none"
         fill-rule="evenodd"
         d="M768.563,1940.72 L768.027,1941.25 L756.971,1938.25 L748.93,1934.96 L733.575,1927.25 L732.381,1926.32 L721.167,1917.63 L708.915,1903.92 L701.768,1889.99 L693.732,1871.82 L691.807,1867.46 L689.952,1856.63 L687.058,1849.64 L683.487,1845.89 L671.084,1837.14 L669.008,1833.35 L663.281,1827.91 L652.997,1821.25 L652.497,1820.35 L643.978,1817.2 L634.361,1816.05 L630.22,1814.54 L625.084,1789.74 L625.552,1789.04 L636.534,1771.57 L668.803,1712.42 L754.857,1610.24 L857.051,1465.04 L878.562,1443.53 L910.833,1448.9 L1029.16,1513.44 L1061.43,1534.95 L969.995,1680.15 L776.371,1932.91 L768.563,1940.72"
         id="path48296" />
      <path
         vector-effect="none"
         fill-rule="evenodd"
         d="M2109.38,1578.28 L2164,1906.02 L2201.65,2142.65 L2185.52,2239.45 L2217.79,2535.23 L2217.79,2542.98 L2217.79,2543.76 L2211.54,2541.57 L2196.73,2536.92 L2186.79,2534.81 L2184.66,2533.11 L2163.5,2526.16 L2143.97,2519.75 L2136.11,2515.77 L2130.4,2515.34 L2119.94,2511.76 L2115.45,2509.47 L2110.6,2508.66 L2099.15,2505.03 L2043.5,2487.38 L2035.27,2483.78 L2034.54,2483.6 L2026.19,2481.54 L1990.8,2468.41 L1970.02,2461.88 L1956.8,2457.73 L1905.48,2440.01 L1902.71,2439.05 L1897.86,2438.38 L1873.92,2429.44 L1840.87,2418.67 L1829.55,2414.98 L1821.09,2413.12 L1810.73,2409.07 L1804.01,2407.8 L1775.88,2398.48 L1711.16,2377.05 L1701.46,2373.84 L1701.46,2373.09 L1701.46,2357.76 L1696.08,1922.16 L1696.08,1674.78 L2002.65,1723.18 L1975.76,1647.89 L1991.9,1588.73 L2025.91,1558.12 L2033.02,1551.72 L2088.71,1561.84 L2109.38,1578.28"
         id="path48298" />
      <path
         vector-effect="none"
         fill-rule="evenodd"
         d="M2627.39,2681.03 L2615.08,2681.03 L2615.07,2679.38 L2614.06,2679.02 L2576.86,2665.54 L2561.09,2661.11 L2549.68,2657.06 L2493.23,2637.05 L2486.28,2635.27 L2485.35,2634.94 L2421.13,2612.32 L2413.8,2610.41 L2398.88,2604.88 L2394.27,2602.46 L2364.69,2593.75 L2356.66,2590.88 L2343.17,2586.07 L2341.29,2584.61 L2328.12,2581.29 L2325.25,2579.47 L2292.5,2568.96 L2269.03,2561.43 L2260.19,2557.57 L2240.91,2551.86 L2227.99,2547.33 L2217.79,2543.76 L2217.79,2542.98 L2217.79,2535.23 L2185.52,2239.45 L2578.14,2260.11 L2578.14,2271.72 L2621.17,2277.09 L2674.95,2379.27 L2627.49,2680.43 L2627.39,2681.03"
         id="path48300" />
      <path
         vector-effect="none"
         fill-rule="evenodd"
         d="M1701.46,2373.09 L1701.46,2373.84 L1683.55,2367.92 L1673.46,2365.47 L1646.22,2356.37 L1611.2,2344.67 L1599.33,2340.04 L1581.67,2334.48 L1545.81,2323.21 L1544.96,2322.8 L1540.18,2320.45 L1517.03,2312.94 L1473.39,2298.79 L1453.95,2293.85 L1440.04,2286.86 L1433.56,2285.74 L1427.18,2282.87 L1387.57,2269.01 L1379.33,2266.13 L1378.75,2265.94 L1378.75,2265.21 L1378.75,1975.93 L1454.05,1680.15 L1475.57,1653.26 L1489.93,1637.03 L1491.7,1637.13 L1696.08,1674.78 L1696.08,1922.16 L1701.46,2357.76 L1701.46,2373.09"
         id="path48302" />
      <path
         vector-effect="none"
         fill-rule="evenodd"
         d="M2033.02,1551.72 L2025.91,1558.12 L1991.9,1588.73 L1975.76,1647.89 L2002.65,1723.18 L1696.08,1674.78 L1491.7,1637.13 L1489.93,1637.03 L1599.27,1513.44 L2029.54,1551.09 L2033.02,1551.72"
         id="path48304" />
      <path
         vector-effect="none"
         fill-rule="evenodd"
         d="m 3115.38,2681.03 h -487.99 l 0.1,-0.6 47.46,-301.16 -53.78,-102.18 -43.03,-5.37 v -11.61 -20.66 l -0.2,-11.96 602.58,33.47 h 371.11 l -322.7,306.54 v 0 l -102.19,102.18 -10.76,10.75 -0.6,0.6"
         id="path48306"
         sodipodi:nodetypes="cccccccccccccccc" />
      <path
         vector-effect="none"
         fill-rule="evenodd"
         d="M2572.76,1911.4 L2577.94,2227.49 L2578.14,2239.45 L2578.14,2260.11 L2185.52,2239.45 L2201.65,2142.65 L2164,1906.02 L2109.38,1578.28 L2112.7,1580.92 L2113.96,1581.92 L2115.23,1582.93 L2116.07,1583.6 L2117.33,1584.6 L2118.59,1585.61 L2119.86,1586.61 L2120.7,1587.28 L2121.96,1588.29 L2123.22,1589.29 L2124.49,1590.29 L2125.33,1590.96 L2126.59,1591.96 L2127.86,1592.97 L2129.12,1593.98 L2129.96,1594.65 L2131.22,1595.65 L2132.49,1596.65 L2133.75,1597.66 L2134.59,1598.33 L2135.85,1599.33 L2137.12,1600.34 L2138.38,1601.34 L2139.22,1602.01 L2140.48,1603.01 L2141.75,1604.02 L2143.01,1605.02 L2143.85,1605.69 L2145.11,1606.69 L2146.38,1607.7 L2147.64,1608.7 L2148.48,1609.37 L2149.74,1610.38 L2151.01,1611.38 L2152.27,1612.38 L2153.11,1613.05 L2154.38,1614.06 L2155.64,1615.06 L2156.9,1616.07 L2157.74,1616.74 L2159.01,1617.74 L2160.27,1618.74 L2161.53,1619.75 L2162.37,1620.42 L2163.64,1621.42 L2164.9,1622.43 L2166.16,1623.43 L2167,1624.1 L2168.27,1625.1 L2169.53,1626.11 L2170.79,1627.11 L2171.63,1627.78 L2172.9,1628.78 L2174.16,1629.79 L2175.42,1630.79 L2176.26,1631.46 L2177.53,1632.47 L2178.79,1633.47 L2180.05,1634.47 L2180.9,1635.14 L2182.16,1636.15 L2183.43,1637.15 L2184.68,1638.16 L2185.53,1638.83 L2186.79,1639.83 L2188.06,1640.83 L2189.31,1641.84 L2190.16,1642.51 L2191.42,1643.51 L2192.69,1644.52 L2193.95,1645.52 L2194.79,1646.19 L2196.05,1647.19 L2197.32,1648.2 L2198.58,1649.2 L2199.42,1649.87 L2200.69,1650.88 L2201.95,1651.88 L2203.21,1652.88 L2204.05,1653.55 L2205.32,1654.56 L2206.58,1655.56 L2207.84,1656.57 L2208.68,1657.24 L2209.95,1658.24 L2211.21,1659.24 L2212.47,1660.25 L2213.31,1660.92 L2214.58,1661.92 L2215.84,1662.93 L2217.1,1663.93 L2217.94,1664.6 L2219.21,1665.6 L2220.47,1666.61 L2221.73,1667.61 L2222.57,1668.28 L2223.84,1669.28 L2225.1,1670.29 L2226.36,1671.29 L2227.21,1671.96 L2228.47,1672.97 L2229.73,1673.97 L2230.99,1674.97 L2231.84,1675.64 L2233.1,1676.65 L2234.36,1677.65 L2235.62,1678.66 L2236.47,1679.33 L2237.73,1680.33 L2238.99,1681.33 L2240.25,1682.34 L2241.1,1683.01 L2242.36,1684.01 L2243.62,1685.02 L2244.88,1686.02 L2245.73,1686.69 L2246.99,1687.69 L2248.25,1688.7 L2249.51,1689.7 L2250.36,1690.37 L2251.62,1691.38 L2252.88,1692.38 L2254.15,1693.38 L2254.99,1694.05 L2256.25,1695.06 L2257.51,1696.06 L2258.78,1697.07 L2259.62,1697.74 L2260.88,1698.74 L2262.14,1699.74 L2263.41,1700.75 L2264.25,1701.42 L2265.51,1702.42 L2266.77,1703.43 L2268.04,1704.43 L2268.88,1705.1 L2270.14,1706.1 L2271.4,1707.11 L2272.67,1708.11 L2273.51,1708.78 L2274.77,1709.79 L2276.03,1710.79 L2277.3,1711.79 L2278.14,1712.46 L2279.4,1713.47 L2280.67,1714.47 L2281.93,1715.48 L2282.77,1716.14 L2284.03,1717.15 L2285.3,1718.15 L2286.56,1719.16 L2287.4,1719.83 L2288.66,1720.83 L2289.93,1721.84 L2291.19,1722.84 L2292.04,1723.51 L2293.29,1724.51 L2294.56,1725.52 L2295.82,1726.52 L2296.67,1727.19 L2297.93,1728.19 L2299.19,1729.2 L2300.46,1730.2 L2301.3,1730.87 L2302.56,1731.88 L2303.82,1732.88 L2305.09,1733.88 L2305.93,1734.55 L2307.19,1735.56 L2308.45,1736.56 L2309.72,1737.57 L2310.56,1738.24 L2311.82,1739.24 L2313.08,1740.24 L2314.35,1741.25 L2315.61,1742.25 L2316.87,1743.26 L2317.71,1743.93 L2318.98,1744.93 L2320.24,1745.93 L2321.5,1746.94 L2322.34,1747.61 L2323.61,1748.61 L2324.87,1749.62 L2326.13,1750.62 L2326.98,1751.29 L2328.24,1752.29 L2329.5,1753.3 L2330.76,1754.3 L2331.61,1754.97 L2332.87,1755.98 L2334.13,1756.98 L2335.39,1757.98 L2336.24,1758.65 L2337.5,1759.66 L2338.76,1760.66 L2340.02,1761.67 L2340.87,1762.34 L2342.13,1763.34 L2343.39,1764.34 L2344.65,1765.35 L2345.5,1766.02 L2346.76,1767.02 L2348.03,1768.03 L2349.28,1769.03 L2350.13,1769.7 L2351.39,1770.7 L2352.66,1771.71 L2353.92,1772.71 L2354.76,1773.38 L2356.02,1774.38 L2357.29,1775.39 L2358.55,1776.39 L2359.39,1777.06 L2360.65,1778.07 L2361.91,1779.07 L2363.18,1780.07 L2364.02,1780.74 L2365.28,1781.75 L2366.54,1782.75 L2367.81,1783.76 L2368.65,1784.43 L2369.91,1785.43 L2371.17,1786.43 L2372.44,1787.44 L2373.28,1788.11 L2374.54,1789.11 L2375.8,1790.12 L2377.07,1791.12 L2377.91,1791.79 L2379.17,1792.79 L2380.44,1793.8 L2381.7,1794.8 L2382.54,1795.47 L2383.8,1796.48 L2385.07,1797.48 L2386.33,1798.48 L2387.18,1799.15 L2388.43,1800.16 L2389.7,1801.16 L2390.96,1802.17 L2391.81,1802.84 L2393.06,1803.84 L2394.33,1804.84 L2395.59,1805.85 L2396.44,1806.52 L2397.69,1807.52 L2398.96,1808.53 L2400.22,1809.53 L2401.07,1810.2 L2402.32,1811.2 L2403.59,1812.21 L2404.85,1813.21 L2405.7,1813.88 L2406.96,1814.88 L2408.22,1815.89 L2409.48,1816.89 L2410.33,1817.56 L2411.59,1818.57 L2412.85,1819.57 L2414.11,1820.57 L2414.96,1821.24 L2416.22,1822.25 L2417.48,1823.25 L2418.75,1824.26 L2419.59,1824.93 L2420.85,1825.93 L2422.11,1826.93 L2423.38,1827.94 L2424.22,1828.61 L2425.48,1829.61 L2426.75,1830.62 L2428.01,1831.62 L2428.85,1832.29 L2430.11,1833.29 L2431.38,1834.3 L2432.64,1835.3 L2433.48,1835.97 L2434.74,1836.98 L2436.01,1837.98 L2437.27,1838.98 L2438.11,1839.65 L2439.37,1840.66 L2440.64,1841.66 L2441.9,1842.67 L2442.74,1843.34 L2444,1844.34 L2445.27,1845.34 L2446.53,1846.35 L2447.37,1847.02 L2448.63,1848.02 L2449.9,1849.03 L2451.16,1850.03 L2452,1850.7 L2453.27,1851.7 L2454.53,1852.71 L2455.79,1853.71 L2456.63,1854.38 L2457.9,1855.38 L2459.16,1856.39 L2460.42,1857.39 L2461.26,1858.06 L2462.53,1859.07 L2463.79,1860.07 L2465.05,1861.07 L2465.89,1861.74 L2467.16,1862.75 L2468.42,1863.75 L2469.68,1864.76 L2470.52,1865.43 L2471.79,1866.43 L2473.05,1867.43 L2474.32,1868.44 L2475.15,1869.11 L2476.42,1870.11 L2477.68,1871.12 L2478.95,1872.12 L2479.78,1872.79 L2481.05,1873.79 L2482.31,1874.8 L2483.57,1875.8 L2484.42,1876.47 L2485.68,1877.48 L2486.94,1878.48 L2488.2,1879.48 L2489.05,1880.15 L2490.31,1881.16 L2491.57,1882.16 L2492.83,1883.17 L2493.68,1883.84 L2494.94,1884.84 L2495.79,1885.51 L2497.04,1886.51 L2497.89,1887.18 L2499.15,1888.19 L2500.3,1889.1 L2501.19,1889.81 L2502.36,1890.74 L2503.54,1891.68 L2504.72,1892.61 L2505.9,1893.55 L2507.07,1894.48 L2508.25,1895.42 L2509.42,1896.35 L2510.6,1897.29 L2511.78,1898.22 L2535.11,1916.78 L2572.76,1911.4"
         id="path48308" />
      <path
         vector-effect="none"
         fill-rule="evenodd"
         d="M3739.91,2067.62 L3551.63,2260.96 L3460.2,2260.96 L3180.52,2260.96 L3201.22,1872.96 L3460.2,1852.25 L3470.11,1851.65 L3729.12,1836.12 L3739.91,2067.62"
         id="path48310" />
      <path
         vector-effect="none"
         fill-rule="evenodd"
         d="M3180.52,2260.96 L2577.94,2227.49 L2572.76,1911.4 L2658.82,1906.02 L2674.9,1905.05 L2885.18,1892.31 L3191.28,1873.76 L3201.22,1872.96 L3180.52,2260.96"
         id="path48312" />
      <path
         vector-effect="none"
         fill-rule="evenodd"
         d="M3535.98,902.163 L3543.62,903.255 L3574.59,911.212 L3582.17,913.655 L3585.25,914.649 L3598.8,920.551 L3608.46,926.216 L3619.87,929.653 L3631.53,934.945 L3646.08,937.815 L3652.79,939.139 L3670.23,1010.5 L3697.79,1123.26 L3712.99,1185.4 L3715.62,1298.52 L3718.37,1416.65 L3729.12,1836.12 L3470.11,1851.65 L3487.09,1325.22 L3470.96,1319.84 L3417.17,1271.44 L3390.28,1255.31 L3363.39,1217.67 L3148.25,1045.57 L3110.11,1002.66 L3111.94,1002.05 L3113.71,1001.88 L3118.44,1001.4 L3126.47,1004.57 L3143.27,1007.08 L3151.39,1004.93 L3162.54,1006.11 L3171.68,1005.69 L3181.06,1003.3 L3189.81,1000.66 L3198.08,1000.86 L3208.05,998.409 L3208.33,998.34 L3212.09,998.941 L3216.36,1000.9 L3224.23,998.759 L3231.38,1000.33 L3241.01,998.061 L3252.36,989.109 L3258.1,985.498 L3258.22,985.33 L3261.09,981.281 L3266.6,975.411 L3270.31,971.473 L3270.58,971.328 L3278.68,967.11 L3278.88,966.85 L3284.65,959.542 L3285.02,959.347 L3288.4,957.548 L3313.43,952.744 L3320.18,949.625 L3326.03,945.769 L3329.05,943.779 L3329.18,943.615 L3333.03,939.065 L3333.59,938.63 L3339.9,933.722 L3339.91,933.71 L3344.76,927.769 L3349.38,923.794 L3349.49,923.736 L3352.13,922.424 L3366.15,921.01 L3366.59,920.586 L3369.9,917.411 L3370.02,917.392 L3375.78,916.522 L3383.84,916.588 L3406.98,916.78 L3413.49,915.521 L3420.49,912.53 L3436.75,903.079 L3443.5,900.956 L3449.02,900.651 L3450.64,900.561 L3467.69,902.979 L3483.35,902.436 L3491.61,900.31 L3505.88,894.581 L3514.53,894.062 L3516.19,894.689 L3535.98,902.163"
         id="path48314" />
      <path
         vector-effect="none"
         fill-rule="evenodd"
         d="M2908.62,971.912 L2915.77,973.593 L2920.42,976.405 L2924.14,980.019 L2930.89,986.595 L2941.33,993.572 L2948.87,997.478 L2957.56,1004.22 L2965.86,1008.49 L2979.06,1017.19 L2980.86,1017.95 L2983.33,1019.01 L2988.72,1019.6 L2996.98,1019.3 L3008.11,1016.63 L3031.58,1007.34 L3046.77,1003.31 L3052.08,1001.9 L3060.74,1004.69 L3074.9,1006.22 L3085.43,1008.26 L3094.57,1007.84 L3110.11,1002.66 L3148.25,1045.57 L3363.39,1217.67 L3390.28,1255.31 L3417.17,1271.44 L3470.96,1319.84 L3487.09,1325.22 L3470.11,1851.65 L3460.2,1852.25 L3201.22,1872.96 L3191.28,1873.76 L2885.18,1892.31 L2674.9,1905.05 L2814.79,1653.27 L2825.55,1513.44 L2626.55,1303.71 L2588.9,1266.06 L2513.6,1180.02 L2506.52,1169.41 L2513.14,1166.66 L2517.17,1164.99 L2517.5,1164.62 L2521.5,1160.13 L2521.67,1160.08 L2527.98,1158.34 L2531.59,1156.08 L2531.69,1155.9 L2534.29,1151.23 L2537.64,1148.11 L2537.7,1148.09 L2546.5,1145.93 L2550.98,1143.66 L2551.23,1143.34 L2556.29,1137.06 L2556.65,1136.83 L2560.65,1134.3 L2560.8,1134.09 L2565.71,1127.21 L2567.32,1125.58 L2567.44,1125.55 L2572.31,1124.18 L2578.31,1123.75 L2581.04,1122 L2581.14,1121.83 L2584.98,1114.79 L2585.38,1114.6 L2587.1,1113.78 L2596.86,1114.44 L2600.48,1113.42 L2600.99,1112.97 L2605.69,1108.8 L2605.73,1108.79 L2612.44,1107.01 L2616.79,1104.25 L2617.05,1103.98 L2619.76,1101.13 L2622.01,1097.46 L2624.94,1092.68 L2627.04,1090.31 L2627.34,1090.15 L2629.91,1088.68 L2637.17,1088.74 L2647.66,1087.17 L2654.38,1082.17 L2665.25,1080.59 L2674.22,1076.31 L2674.52,1075.97 L2678.44,1071.57 L2679.13,1068.65 L2681.21,1059.93 L2684.43,1055.46 L2684.94,1055.05 L2697.11,1045.46 L2697.12,1045.43 L2698.45,1042.11 L2699.15,1035.92 L2701.51,1033.93 L2701.54,1033.92 L2724.99,1025.67 L2737.83,1021.15 L2749.05,1015.37 L2749.4,1015.02 L2758.49,1006.02 L2758.61,1006 L2769.11,1003.84 L2778.84,998.572 L2785.87,996.832 L2787.08,996.53 L2800.3,989.507 L2811.66,985.218 L2824.04,982.282 L2831.63,977.033 L2837.51,976.248 L2847.64,973.207 L2858.9,974.445 L2860.3,974.6 L2865.91,971.717 L2868.54,971.203 L2875.56,972.142 L2884.69,970.347 L2892.95,970.165 L2908.62,971.912"
         id="path48316" />
      <path
         vector-effect="none"
         fill-rule="evenodd"
         d="M2513.6,1180.02 L2588.9,1266.06 L2626.55,1303.71 L2825.55,1513.44 L2814.79,1653.27 L2674.9,1905.05 L2658.82,1906.02 L2572.76,1911.4 L2535.11,1916.78 L2511.78,1898.22 L2510.6,1897.29 L2509.42,1896.35 L2508.25,1895.42 L2507.07,1894.48 L2505.9,1893.55 L2504.72,1892.61 L2503.54,1891.68 L2502.36,1890.74 L2501.19,1889.81 L2500.3,1889.1 L2499.15,1888.19 L2497.89,1887.18 L2497.04,1886.51 L2495.79,1885.51 L2494.94,1884.84 L2493.68,1883.84 L2492.83,1883.17 L2491.57,1882.16 L2490.31,1881.16 L2489.05,1880.15 L2488.2,1879.48 L2486.94,1878.48 L2485.68,1877.48 L2484.42,1876.47 L2483.57,1875.8 L2482.31,1874.8 L2481.05,1873.79 L2479.78,1872.79 L2478.95,1872.12 L2477.68,1871.12 L2476.42,1870.11 L2475.15,1869.11 L2474.32,1868.44 L2473.05,1867.43 L2471.79,1866.43 L2470.52,1865.43 L2469.68,1864.76 L2468.42,1863.75 L2467.16,1862.75 L2465.89,1861.74 L2465.05,1861.07 L2463.79,1860.07 L2462.53,1859.07 L2461.26,1858.06 L2460.42,1857.39 L2459.16,1856.39 L2457.9,1855.38 L2456.63,1854.38 L2455.79,1853.71 L2454.53,1852.71 L2453.27,1851.7 L2452,1850.7 L2451.16,1850.03 L2449.9,1849.03 L2448.63,1848.02 L2447.37,1847.02 L2446.53,1846.35 L2445.27,1845.34 L2444,1844.34 L2442.74,1843.34 L2441.9,1842.67 L2440.64,1841.66 L2439.37,1840.66 L2438.11,1839.65 L2437.27,1838.98 L2436.01,1837.98 L2434.74,1836.98 L2433.48,1835.97 L2432.64,1835.3 L2431.38,1834.3 L2430.11,1833.29 L2428.85,1832.29 L2428.01,1831.62 L2426.75,1830.62 L2425.48,1829.61 L2424.22,1828.61 L2423.38,1827.94 L2422.11,1826.93 L2420.85,1825.93 L2419.59,1824.93 L2418.75,1824.26 L2417.48,1823.25 L2416.22,1822.25 L2414.96,1821.24 L2414.11,1820.57 L2412.85,1819.57 L2411.59,1818.57 L2410.33,1817.56 L2409.48,1816.89 L2408.22,1815.89 L2406.96,1814.88 L2405.7,1813.88 L2404.85,1813.21 L2403.59,1812.21 L2402.32,1811.2 L2401.07,1810.2 L2400.22,1809.53 L2398.96,1808.53 L2397.69,1807.52 L2396.44,1806.52 L2395.59,1805.85 L2394.33,1804.84 L2393.06,1803.84 L2391.81,1802.84 L2390.96,1802.17 L2389.7,1801.16 L2388.43,1800.16 L2387.18,1799.15 L2386.33,1798.48 L2385.07,1797.48 L2383.8,1796.48 L2382.54,1795.47 L2381.7,1794.8 L2380.44,1793.8 L2379.17,1792.79 L2377.91,1791.79 L2377.07,1791.12 L2375.8,1790.12 L2374.54,1789.11 L2373.28,1788.11 L2372.44,1787.44 L2371.17,1786.43 L2369.91,1785.43 L2368.65,1784.43 L2367.81,1783.76 L2366.54,1782.75 L2365.28,1781.75 L2364.02,1780.74 L2363.18,1780.07 L2361.91,1779.07 L2360.65,1778.07 L2359.39,1777.06 L2358.55,1776.39 L2357.29,1775.39 L2356.02,1774.38 L2354.76,1773.38 L2353.92,1772.71 L2352.66,1771.71 L2351.39,1770.7 L2350.13,1769.7 L2349.28,1769.03 L2348.03,1768.03 L2346.76,1767.02 L2345.5,1766.02 L2344.65,1765.35 L2343.39,1764.34 L2342.13,1763.34 L2340.87,1762.34 L2340.02,1761.67 L2338.76,1760.66 L2337.5,1759.66 L2336.24,1758.65 L2335.39,1757.98 L2334.13,1756.98 L2332.87,1755.98 L2331.61,1754.97 L2330.76,1754.3 L2329.5,1753.3 L2328.24,1752.29 L2326.98,1751.29 L2326.13,1750.62 L2324.87,1749.62 L2323.61,1748.61 L2322.34,1747.61 L2321.5,1746.94 L2320.24,1745.93 L2318.98,1744.93 L2317.71,1743.93 L2316.87,1743.26 L2315.61,1742.25 L2314.35,1741.25 L2313.08,1740.24 L2311.82,1739.24 L2310.56,1738.24 L2309.72,1737.57 L2308.45,1736.56 L2307.19,1735.56 L2305.93,1734.55 L2305.09,1733.88 L2303.82,1732.88 L2302.56,1731.88 L2301.3,1730.87 L2300.46,1730.2 L2299.19,1729.2 L2297.93,1728.19 L2296.67,1727.19 L2295.82,1726.52 L2294.56,1725.52 L2293.29,1724.51 L2292.04,1723.51 L2291.19,1722.84 L2289.93,1721.84 L2288.66,1720.83 L2287.4,1719.83 L2286.56,1719.16 L2285.3,1718.15 L2284.03,1717.15 L2282.77,1716.14 L2281.93,1715.48 L2280.67,1714.47 L2279.4,1713.47 L2278.14,1712.46 L2277.3,1711.79 L2276.03,1710.79 L2274.77,1709.79 L2273.51,1708.78 L2272.67,1708.11 L2271.4,1707.11 L2270.14,1706.1 L2268.88,1705.1 L2268.04,1704.43 L2266.77,1703.43 L2265.51,1702.42 L2264.25,1701.42 L2263.41,1700.75 L2262.14,1699.74 L2260.88,1698.74 L2259.62,1697.74 L2258.78,1697.07 L2257.51,1696.06 L2256.25,1695.06 L2254.99,1694.05 L2254.15,1693.38 L2252.88,1692.38 L2251.62,1691.38 L2250.36,1690.37 L2249.51,1689.7 L2248.25,1688.7 L2246.99,1687.69 L2245.73,1686.69 L2244.88,1686.02 L2243.62,1685.02 L2242.36,1684.01 L2241.1,1683.01 L2240.25,1682.34 L2238.99,1681.33 L2237.73,1680.33 L2236.47,1679.33 L2235.62,1678.66 L2234.36,1677.65 L2233.1,1676.65 L2231.84,1675.64 L2230.99,1674.97 L2229.73,1673.97 L2228.47,1672.97 L2227.21,1671.96 L2226.36,1671.29 L2225.1,1670.29 L2223.84,1669.28 L2222.57,1668.28 L2221.73,1667.61 L2220.47,1666.61 L2219.21,1665.6 L2217.94,1664.6 L2217.1,1663.93 L2215.84,1662.93 L2214.58,1661.92 L2213.31,1660.92 L2212.47,1660.25 L2211.21,1659.24 L2209.95,1658.24 L2208.68,1657.24 L2207.84,1656.57 L2206.58,1655.56 L2205.32,1654.56 L2204.05,1653.55 L2203.21,1652.88 L2201.95,1651.88 L2200.69,1650.88 L2199.42,1649.87 L2198.58,1649.2 L2197.32,1648.2 L2196.05,1647.19 L2194.79,1646.19 L2193.95,1645.52 L2192.69,1644.52 L2191.42,1643.51 L2190.16,1642.51 L2189.31,1641.84 L2188.06,1640.83 L2186.79,1639.83 L2185.53,1638.83 L2184.68,1638.16 L2183.43,1637.15 L2182.16,1636.15 L2180.9,1635.14 L2180.05,1634.47 L2178.79,1633.47 L2177.53,1632.47 L2176.26,1631.46 L2175.42,1630.79 L2174.16,1629.79 L2172.9,1628.78 L2171.63,1627.78 L2170.79,1627.11 L2169.53,1626.11 L2168.27,1625.1 L2167,1624.1 L2166.16,1623.43 L2164.9,1622.43 L2163.64,1621.42 L2162.37,1620.42 L2161.53,1619.75 L2160.27,1618.74 L2159.01,1617.74 L2157.74,1616.74 L2156.9,1616.07 L2155.64,1615.06 L2154.38,1614.06 L2153.11,1613.05 L2152.27,1612.38 L2151.01,1611.38 L2149.74,1610.38 L2148.48,1609.37 L2147.64,1608.7 L2146.38,1607.7 L2145.11,1606.69 L2143.85,1605.69 L2143.01,1605.02 L2141.75,1604.02 L2140.48,1603.01 L2139.22,1602.01 L2138.38,1601.34 L2137.12,1600.34 L2135.85,1599.33 L2134.59,1598.33 L2133.75,1597.66 L2132.49,1596.65 L2131.22,1595.65 L2129.96,1594.65 L2129.12,1593.98 L2127.86,1592.97 L2126.59,1591.96 L2125.33,1590.96 L2124.49,1590.29 L2123.22,1589.29 L2121.96,1588.29 L2120.7,1587.28 L2119.86,1586.61 L2118.59,1585.61 L2117.33,1584.6 L2116.07,1583.6 L2115.23,1582.93 L2113.96,1581.92 L2112.7,1580.92 L2109.38,1578.28 L2088.71,1561.84 L2099.66,1189.59 L2105.19,1191.26 L2108.63,1192.29 L2134.93,1195.31 L2142.8,1194.72 L2172.95,1188.53 L2173.49,1188.42 L2193.59,1185.47 L2209.85,1185.65 L2214.75,1187.45 L2223.83,1194.51 L2236.8,1201.66 L2239.82,1203.6 L2242.99,1207.03 L2255.19,1223.21 L2268.2,1234.44 L2272.33,1235.5 L2284.3,1235.64 L2288.46,1235.69 L2296.88,1238.82 L2302.13,1238.74 L2306.38,1239.58 L2324.63,1239.26 L2347.92,1230.72 L2350.48,1229.35 L2361.84,1223.28 L2394.38,1215.03 L2399.25,1214.12 L2411,1214.25 L2416.23,1212.46 L2420.84,1210.44 L2427.46,1209.75 L2441.41,1204.67 L2453.83,1196.14 L2462.55,1193.46 L2462.98,1193.03 L2468.37,1187.59 L2468.49,1187.55 L2471.49,1186.57 L2481.82,1182.64 L2490.78,1178.1 L2497.52,1176.3 L2497.95,1175.87 L2502.84,1170.94 L2502.98,1170.88 L2506.52,1169.41 L2513.6,1180.02"
         id="path48318" />
    </g>
    <g
       font-family=".SF NS Text"
       font-weight="400"
       stroke-width="1"
       fill="none"
       stroke="#000000"
       transform="matrix(11.8081,0,0,11.8081,-275.212,-381.938)"
       stroke-linecap="square"
       stroke-linejoin="bevel"
       font-size="54.1667"
       font-style="normal"
       stroke-opacity="1"
       id="g48322" />
    <g
       font-family=".SF NS Text"
       font-weight="400"
       stroke-width="1"
       fill="none"
       stroke="#000000"
       transform="matrix(11.8081,0,0,11.8081,-275.212,-381.938)"
       stroke-linecap="square"
       stroke-linejoin="bevel"
       font-size="54.1667"
       font-style="normal"
       stroke-opacity="1"
       id="g48324" />
    <g
       font-family=".SF NS Text"
       font-weight="400"
       stroke-width="1"
       fill="none"
       stroke="#000000"
       transform="matrix(11.8081,0,0,11.8081,-275.212,-381.938)"
       stroke-linecap="square"
       stroke-linejoin="bevel"
       font-size="54.1667"
       font-style="normal"
       stroke-opacity="1"
       id="g48326" />
    <g
       font-family=".SF NS Text"
       font-weight="400"
       stroke-width="1"
       fill="none"
       stroke="#000000"
       transform="matrix(1,0,0,1,0,0)"
       stroke-linecap="square"
       stroke-linejoin="bevel"
       font-size="54.1667"
       font-style="normal"
       stroke-opacity="1"
       id="g48328" />
    <g
       font-family=".SF NS Text"
       font-weight="400"
       stroke-width="1"
       fill="none"
       stroke="#000000"
       transform="matrix(11.8081,0,0,11.8081,-275.212,-381.938)"
       stroke-linecap="square"
       stroke-linejoin="bevel"
       font-size="54.1667"
       font-style="normal"
       stroke-opacity="1"
       id="g48330" />
    <g
       font-family=".SF NS Text"
       font-weight="400"
       stroke-width="1"
       fill="none"
       stroke="#000000"
       transform="matrix(11.8081,0,0,11.8081,-275.212,-381.938)"
       stroke-linecap="square"
       stroke-linejoin="bevel"
       font-size="54.1667"
       font-style="normal"
       stroke-opacity="1"
       id="g48332" />
    <g
       font-family=".SF NS Text"
       font-weight="400"
       stroke-width="1"
       fill="none"
       stroke="#000000"
       transform="matrix(1,0,0,1,0,0)"
       stroke-linecap="square"
       stroke-linejoin="bevel"
       font-size="54.1667"
       font-style="normal"
       stroke-opacity="1"
       id="g48334" />
  </g>
</svg>
