<?xml version="1.0" encoding="UTF-8" standalone="no"?>
<svg
   xmlns:dc="http://purl.org/dc/elements/1.1/"
   xmlns:cc="http://creativecommons.org/ns#"
   xmlns:rdf="http://www.w3.org/1999/02/22-rdf-syntax-ns#"
   xmlns:svg="http://www.w3.org/2000/svg"
   xmlns="http://www.w3.org/2000/svg"
   xmlns:sodipodi="http://sodipodi.sourceforge.net/DTD/sodipodi-0.dtd"
   xmlns:inkscape="http://www.inkscape.org/namespaces/inkscape"
   viewBox="0 0 3507 2480"
   width="296.926mm"
   height="209.973mm"
   version="1.2"
   id="svg47666"
   sodipodi:docname="Blank_Somaliland_Map (1).svg"
   inkscape:version="1.0.2 (e86c870879, 2021-01-15, custom)">
  <metadata
     id="metadata47670">
    <rdf:RDF>
      <cc:Work
         rdf:about="">
        <dc:format>image/svg+xml</dc:format>
        <dc:type
           rdf:resource="http://purl.org/dc/dcmitype/StillImage" />
        <dc:title>Qt SVG Document</dc:title>
      </cc:Work>
    </rdf:RDF>
  </metadata>
  <sodipodi:namedview
     pagecolor="#ffffff"
     bordercolor="#666666"
     borderopacity="1"
     objecttolerance="10"
     gridtolerance="10"
     guidetolerance="10"
     inkscape:pageopacity="0"
     inkscape:pageshadow="2"
     inkscape:window-width="1920"
     inkscape:window-height="1001"
     id="namedview47668"
     showgrid="false"
     inkscape:zoom="0.36977038"
     inkscape:cx="561.11999"
     inkscape:cy="396.79938"
     inkscape:window-x="-9"
     inkscape:window-y="-9"
     inkscape:window-maximized="1"
     inkscape:current-layer="svg47666" />
  <title
     id="title47594">Qt SVG Document</title>
  <desc
     id="desc47596">Generated with Qt</desc>
  <defs
     id="defs47598" />
  <g
     stroke-width="1"
     fill="none"
     stroke="black"
     stroke-linecap="square"
     stroke-linejoin="bevel"
     fill-rule="evenodd"
     id="g47664">
    <g
       font-family=".SF NS Text"
       font-weight="400"
       stroke-width="1"
       fill="none"
       stroke="#000000"
       transform="matrix(1,0,0,1,0,0)"
       stroke-linecap="square"
       stroke-linejoin="bevel"
       font-size="54.1667"
       font-style="normal"
       stroke-opacity="1"
       id="g47600" />
    <g
       font-family=".SF NS Text"
       font-weight="400"
       stroke-width="1"
       fill="none"
       stroke="#000000"
       transform="matrix(1,0,0,1,0,0)"
       stroke-linecap="square"
       stroke-linejoin="bevel"
       font-size="54.1667"
       font-style="normal"
       stroke-opacity="1"
       id="g47602" />
    <g
       font-family=".SF NS Text"
       font-weight="400"
       stroke-width="1"
       fill="none"
       stroke="#000000"
       transform="matrix(11.8081,0,0,11.8081,0,0)"
       stroke-linecap="square"
       stroke-linejoin="bevel"
       font-size="54.1667"
       font-style="normal"
       stroke-opacity="1"
       id="g47604" />
    <g
       font-family=".SF NS Text"
       font-weight="400"
       stroke-width="1"
       fill="none"
       stroke="#000000"
       transform="matrix(0.999751,0,0,0.999751,0,0)"
       stroke-linecap="square"
       stroke-linejoin="bevel"
       font-size="54.1667"
       font-style="normal"
       stroke-opacity="1"
       id="g47606" />
    <g
       fill-opacity="0"
       font-family=".SF NS Text"
       font-weight="400"
       fill="#f2efea"
       stroke="none"
       transform="matrix(0.999751,0,0,0.999751,0,0)"
       font-size="54.1667"
       font-style="normal"
       id="g47610">
      <path
         vector-effect="none"
         fill-rule="evenodd"
         d="M-2,-2 L3510,-2 L3510,2483 L-2,2483 L-2,-2"
         id="path47608" />
    </g>
    <g
       font-family=".SF NS Text"
       font-weight="400"
       stroke-width="1"
       fill="none"
       stroke="#000000"
       transform="matrix(0.999751,0,0,0.999751,0,0)"
       stroke-linecap="square"
       stroke-linejoin="bevel"
       font-size="54.1667"
       font-style="normal"
       stroke-opacity="1"
       id="g47612" />
    <g
       font-family=".SF NS Text"
       font-weight="400"
       stroke-width="1"
       fill="none"
       stroke="#000000"
       transform="matrix(11.8081,0,0,11.8081,0,0)"
       stroke-linecap="square"
       stroke-linejoin="bevel"
       font-size="54.1667"
       font-style="normal"
       stroke-opacity="1"
       id="g47614" />
    <g
       font-family=".SF NS Text"
       font-weight="400"
       stroke-width="1"
       fill="none"
       stroke="#000000"
       transform="matrix(11.8081,0,0,11.8081,0,0)"
       stroke-linecap="square"
       stroke-linejoin="bevel"
       font-size="54.1667"
       font-style="normal"
       stroke-opacity="1"
       id="g47616" />
    <g
       font-family=".SF NS Text"
       font-weight="400"
       stroke-width="1"
       fill="none"
       stroke="#000000"
       transform="matrix(11.8081,0,0,11.8081,0,0)"
       stroke-linecap="square"
       stroke-linejoin="bevel"
       font-size="54.1667"
       font-style="normal"
       stroke-opacity="1"
       id="g47618" />
    <g
       font-family=".SF NS Text"
       font-weight="400"
       stroke-width="1"
       fill="none"
       stroke="#000000"
       transform="matrix(11.8081,0,0,11.8081,0,0)"
       stroke-linecap="square"
       stroke-linejoin="bevel"
       font-size="54.1667"
       font-style="normal"
       stroke-opacity="1"
       id="g47620" />
    <g
       font-family=".SF NS Text"
       font-weight="400"
       stroke-width="1"
       fill="none"
       stroke="#000000"
       transform="matrix(11.8081,0,0,11.8081,-299.197,-238.265)"
       stroke-linecap="square"
       stroke-linejoin="bevel"
       font-size="54.1667"
       font-style="normal"
       stroke-opacity="1"
       id="g47622" />
    <g
       font-family=".SF NS Text"
       font-weight="400"
       stroke-width="1"
       fill="none"
       stroke="#000000"
       transform="matrix(11.8081,0,0,11.8081,-299.197,-238.265)"
       stroke-linecap="square"
       stroke-linejoin="bevel"
       font-size="54.1667"
       font-style="normal"
       stroke-opacity="1"
       id="g47624" />
    <g
       fill-opacity="0"
       font-family=".SF NS Text"
       font-weight="400"
       fill="#000000"
       stroke="none"
       transform="matrix(0.999751,0,0,0.999751,-299.197,-238.265)"
       font-size="54.1667"
       font-style="normal"
       id="g47628">
      <rect
         y="0"
         width="4130"
         x="0"
         height="2957"
         id="rect47626" />
    </g>
    <g
       fill-opacity="1"
       font-family=".SF NS Text"
       font-weight="400"
       stroke-width="3.07087"
       fill="#f2efea"
       stroke="#232323"
       transform="matrix(0.999751,0,0,0.999751,-299.197,-238.265)"
       stroke-linecap="square"
       stroke-linejoin="bevel"
       font-size="54.1667"
       font-style="normal"
       stroke-opacity="1"
       id="g47648">
      <path
         vector-effect="none"
         fill-rule="evenodd"
         d="M2066.04,1326.79 L2058.81,1333.29 L2024.24,1364.4 L2007.84,1424.52 L2035.17,1501.04 L1723.61,1451.85 L1515.9,1413.59 L1514.1,1413.48 L1422.98,1408.12 L1149.67,1227.76 L1105.95,1205.9 L1152.75,1122.7 L1164.59,1133.01 L1180.95,1145.52 L1198.49,1152.99 L1218.42,1160.04 L1223.79,1161.94 L1247.75,1167.16 L1268.1,1162.15 L1286.65,1163.2 L1302.07,1166.56 L1309.22,1169.08 L1319.26,1169.78 L1326.56,1173.04 L1332.03,1173.82 L1348.37,1171.78 L1354.69,1172.15 L1359.93,1172.46 L1363.71,1170.76 L1372.31,1169.1 L1380.07,1163.19 L1383.48,1161.87 L1404.85,1157.24 L1414.99,1156.56 L1420.13,1153.08 L1434.57,1151.2 L1438.65,1152.27 L1439.94,1153.37 L1447.93,1153.24 L1451.51,1154.19 L1457.47,1153.83 L1459.72,1152.04 L1461.62,1151.88 L1465.33,1153.58 L1472.3,1152.58 L1475.73,1153.03 L1484.43,1157.03 L1494.73,1157.74 L1504.78,1159.21 L1505.3,1159.83 L1506.18,1159.18 L1526.22,1158.35 L1539.14,1156.76 L1548.73,1153.34 L1567.62,1144.37 L1570.03,1142.36 L1571,1141.55 L1571.04,1141.46 L1572.97,1137.75 L1572.31,1136.13 L1570.03,1135.54 L1565.96,1136.1 L1562.45,1138.8 L1562.05,1138.87 L1560.8,1139.08 L1560.4,1137.7 L1562.13,1134.91 L1562.42,1134.81 L1570.03,1132.1 L1572.86,1131.09 L1582.8,1126.04 L1596.19,1121.68 L1605.36,1115.63 L1605.56,1115.36 L1610.58,1108.64 L1611.07,1108.21 L1615.09,1104.67 L1616.35,1104.53 L1618.11,1103.37 L1640.78,1099.5 L1649.11,1096.6 L1659.17,1090.17 L1671.16,1085.59 L1685.3,1080.09 L1697.52,1074.13 L1702.54,1070.28 L1702.8,1070.01 L1710.16,1062.26 L1717.49,1051.97 L1725.15,1044.43 L1732.13,1037.55 L1747.37,1020.49 L1747.5,1020.46 L1755.35,1018.87 L1766.92,1019.83 L1784.14,1019.57 L1786.1,1019.55 L1791.96,1020.34 L1800.58,1019.08 L1810.62,1019.32 L1821.79,1018.4 L1825.19,1016.72 L1825.47,1016.37 L1832.43,1007.57 L1832.66,1007.47 L1838.24,1005.1 L1848.29,1003.79 L1851.17,1003.41 L1853.32,1002.38 L1853.72,1001.96 L1861.33,994.097 L1861.44,994.063 L1873.6,990.407 L1878.76,987.32 L1882.66,984.376 L1882.71,984.269 L1885.25,978.812 L1889.13,974.738 L1893.37,966.621 L1893.83,965.753 L1896.46,963.204 L1896.51,963.202 L1907.89,962.921 L1915.23,960.307 L1929.88,953.448 L1936.84,951.217 L1942.51,948.126 L1955.47,938.905 L1961.14,934.683 L1983.03,927.481 L1984.53,926.205 L1984.54,926.184 L1989.74,916.462 L1992.99,912.65 L1993.24,912.524 L1996.53,910.844 L2002.57,910.186 L2008.33,909.558 L2011.35,907.131 L2012.88,907.238 L2018.16,911.943 L2029.44,919.209 L2037.12,922.502 L2038.93,924.992 L2039.76,930.258 L2041.33,933.127 L2043.25,934.61 L2047.45,934.556 L2053.09,938.002 L2053.43,937.404 L2053.96,936.483 L2052.58,933.986 L2044.71,929.063 L2042.76,926.45 L2043.12,924.561 L2043.58,924.555 L2050.24,924.469 L2068.52,932.277 L2092.24,947.556 L2102.75,954.335 L2113.84,956.709 L2129.23,957.399 L2133.76,958.761 L2122.63,1337.08 L2066.04,1326.79"
         id="path47630" />
      <path
         vector-effect="none"
         fill-rule="evenodd"
         d="M2955.9,737.532 L2963.17,739.242 L2967.9,742.099 L2971.67,745.772 L2978.54,752.455 L2989.15,759.546 L2996.81,763.516 L3005.64,770.367 L3014.07,774.71 L3027.49,783.544 L3029.32,784.326 L3031.83,785.401 L3037.31,785.994 L3045.7,785.69 L3057.01,782.981 L3080.87,773.538 L3096.3,769.444 L3101.7,768.011 L3110.5,770.849 L3124.89,772.399 L3135.59,774.473 L3144.88,774.044 L3160.67,768.785 L3162.53,768.166 L3164.34,767.986 L3169.14,767.502 L3177.31,770.724 L3194.37,773.271 L3202.63,771.092 L3213.97,772.289 L3223.25,771.865 L3232.78,769.429 L3241.68,766.746 L3250.07,766.955 L3260.21,764.462 L3260.5,764.392 L3264.32,765.002 L3268.65,766.991 L3276.66,764.817 L3283.92,766.416 L3293.71,764.108 L3305.24,755.009 L3311.08,751.34 L3311.2,751.17 L3314.11,747.054 L3319.72,741.088 L3323.48,737.087 L3323.76,736.939 L3331.99,732.652 L3332.2,732.388 L3338.06,724.961 L3338.44,724.763 L3341.87,722.935 L3367.31,718.052 L3374.17,714.883 L3380.11,710.964 L3383.18,708.942 L3383.32,708.775 L3387.23,704.151 L3387.8,703.708 L3394.21,698.72 L3394.22,698.708 L3399.15,692.67 L3403.84,688.631 L3403.96,688.572 L3406.64,687.239 L3420.89,685.801 L3421.34,685.37 L3424.69,682.143 L3424.82,682.124 L3430.67,681.241 L3438.86,681.308 L3462.38,681.503 L3469,680.223 L3476.11,677.183 L3492.63,667.579 L3499.5,665.421 L3505.11,665.11 L3506.76,665.019 L3524.08,667.476 L3540,666.925 L3548.4,664.764 L3562.9,658.942 L3571.68,658.415 L3573.37,659.051 L3593.48,666.647 L3601.25,667.757 L3632.73,675.844 L3640.43,678.326 L3643.56,679.336 L3657.33,685.335 L3667.15,691.093 L3678.74,694.585 L3690.59,699.963 L3705.38,702.88 L3712.19,704.226 L3729.92,776.746 L3757.94,891.351 L3773.38,954.499 L3776.05,1069.46 L3778.84,1189.51 L3789.77,1615.82 L3526.54,1631.61 L3516.47,1632.21 L3253.27,1653.27 L3243.17,1654.07 L2932.08,1672.92 L2718.37,1685.88 L2702.03,1686.87 L2614.57,1692.33 L2576.31,1697.8 L2552.59,1678.94 L2551.39,1677.99 L2550.2,1677.04 L2549.01,1676.09 L2547.81,1675.14 L2546.62,1674.19 L2545.42,1673.24 L2544.22,1672.28 L2543.03,1671.33 L2541.84,1670.38 L2540.93,1669.66 L2539.76,1668.74 L2538.48,1667.72 L2537.62,1667.04 L2536.34,1666.02 L2535.48,1665.33 L2534.2,1664.31 L2533.34,1663.63 L2532.06,1662.61 L2530.78,1661.59 L2529.49,1660.57 L2528.64,1659.89 L2527.36,1658.87 L2526.07,1657.85 L2524.79,1656.83 L2523.93,1656.15 L2522.65,1655.13 L2521.37,1654.11 L2520.08,1653.09 L2519.23,1652.41 L2517.94,1651.39 L2516.66,1650.37 L2515.37,1649.35 L2514.52,1648.67 L2513.24,1647.65 L2511.95,1646.63 L2510.67,1645.61 L2509.82,1644.92 L2508.53,1643.9 L2507.25,1642.88 L2505.96,1641.86 L2505.11,1641.18 L2503.83,1640.16 L2502.54,1639.14 L2501.26,1638.12 L2500.4,1637.44 L2499.12,1636.42 L2497.84,1635.4 L2496.55,1634.38 L2495.7,1633.7 L2494.41,1632.68 L2493.13,1631.66 L2491.84,1630.64 L2490.99,1629.96 L2489.71,1628.94 L2488.42,1627.92 L2487.14,1626.9 L2486.29,1626.22 L2485,1625.2 L2483.72,1624.17 L2482.43,1623.15 L2481.58,1622.47 L2480.3,1621.45 L2479.01,1620.43 L2477.73,1619.41 L2476.87,1618.73 L2475.59,1617.71 L2474.3,1616.69 L2473.02,1615.67 L2472.17,1614.99 L2470.88,1613.97 L2469.6,1612.95 L2468.32,1611.93 L2467.46,1611.25 L2466.18,1610.23 L2464.89,1609.21 L2463.61,1608.19 L2462.76,1607.51 L2461.47,1606.49 L2460.18,1605.47 L2458.91,1604.45 L2458.05,1603.76 L2456.76,1602.74 L2455.48,1601.72 L2454.2,1600.7 L2453.34,1600.02 L2452.05,1599 L2450.77,1597.98 L2449.49,1596.96 L2448.63,1596.28 L2447.35,1595.26 L2446.06,1594.24 L2444.79,1593.22 L2443.93,1592.54 L2442.64,1591.52 L2441.36,1590.5 L2440.08,1589.48 L2439.22,1588.8 L2437.94,1587.78 L2436.65,1586.76 L2435.37,1585.74 L2434.52,1585.06 L2433.23,1584.04 L2431.95,1583.01 L2430.67,1581.99 L2429.81,1581.31 L2428.52,1580.29 L2427.24,1579.27 L2425.96,1578.25 L2425.1,1577.57 L2423.82,1576.55 L2422.53,1575.53 L2421.26,1574.51 L2420.4,1573.83 L2419.11,1572.81 L2417.83,1571.79 L2416.55,1570.77 L2415.69,1570.09 L2414.41,1569.07 L2413.12,1568.05 L2411.84,1567.03 L2410.98,1566.35 L2409.7,1565.33 L2408.42,1564.31 L2407.14,1563.29 L2406.28,1562.6 L2404.99,1561.58 L2403.71,1560.56 L2402.43,1559.54 L2401.57,1558.86 L2400.29,1557.84 L2399.01,1556.82 L2397.72,1555.8 L2396.87,1555.12 L2395.59,1554.1 L2394.3,1553.08 L2393.02,1552.06 L2392.16,1551.38 L2390.88,1550.36 L2389.6,1549.34 L2388.31,1548.32 L2387.45,1547.64 L2386.17,1546.62 L2384.89,1545.6 L2383.61,1544.58 L2382.75,1543.9 L2381.47,1542.88 L2380.18,1541.85 L2378.9,1540.84 L2378.04,1540.15 L2376.76,1539.13 L2375.48,1538.11 L2374.19,1537.09 L2373.33,1536.41 L2372.06,1535.39 L2370.77,1534.37 L2369.49,1533.35 L2368.63,1532.67 L2367.35,1531.65 L2366.07,1530.63 L2364.78,1529.61 L2363.92,1528.93 L2362.64,1527.91 L2361.36,1526.89 L2360.08,1525.87 L2359.22,1525.19 L2357.94,1524.17 L2356.65,1523.15 L2355.37,1522.13 L2354.51,1521.44 L2353.23,1520.42 L2351.95,1519.4 L2350.66,1518.38 L2349.38,1517.36 L2348.1,1516.34 L2347.24,1515.66 L2345.96,1514.64 L2344.67,1513.62 L2343.39,1512.6 L2342.54,1511.92 L2341.25,1510.9 L2339.97,1509.88 L2338.69,1508.86 L2337.83,1508.18 L2336.54,1507.16 L2335.26,1506.14 L2333.98,1505.12 L2333.12,1504.44 L2331.83,1503.42 L2330.55,1502.4 L2329.27,1501.38 L2328.41,1500.69 L2327.13,1499.67 L2325.84,1498.65 L2324.57,1497.63 L2323.71,1496.95 L2322.42,1495.93 L2321.14,1494.91 L2319.86,1493.89 L2319,1493.21 L2317.72,1492.19 L2316.43,1491.17 L2315.15,1490.15 L2314.3,1489.47 L2313.01,1488.45 L2311.73,1487.43 L2310.45,1486.41 L2309.59,1485.73 L2308.3,1484.71 L2307.02,1483.69 L2305.74,1482.67 L2304.88,1481.99 L2303.6,1480.97 L2302.31,1479.94 L2301.04,1478.92 L2300.18,1478.24 L2298.89,1477.22 L2297.61,1476.2 L2296.33,1475.18 L2295.47,1474.5 L2294.19,1473.48 L2292.9,1472.46 L2291.62,1471.44 L2290.76,1470.76 L2289.48,1469.74 L2288.2,1468.72 L2286.92,1467.7 L2286.06,1467.02 L2284.77,1466 L2283.49,1464.98 L2282.21,1463.96 L2281.35,1463.28 L2280.07,1462.26 L2278.78,1461.24 L2277.5,1460.22 L2276.65,1459.53 L2275.36,1458.51 L2274.08,1457.49 L2272.8,1456.47 L2271.94,1455.79 L2270.66,1454.77 L2269.38,1453.75 L2268.09,1452.73 L2267.23,1452.05 L2265.95,1451.03 L2264.67,1450.01 L2263.39,1448.99 L2262.53,1448.31 L2261.25,1447.29 L2259.96,1446.27 L2258.68,1445.25 L2257.82,1444.57 L2256.54,1443.55 L2255.26,1442.53 L2253.97,1441.51 L2253.11,1440.83 L2251.84,1439.8 L2250.55,1438.78 L2249.27,1437.76 L2248.41,1437.08 L2247.13,1436.06 L2245.85,1435.04 L2244.56,1434.02 L2243.7,1433.34 L2242.42,1432.32 L2241.14,1431.3 L2239.86,1430.28 L2239,1429.6 L2237.72,1428.58 L2236.43,1427.56 L2235.15,1426.54 L2234.29,1425.86 L2233.01,1424.84 L2231.73,1423.82 L2230.44,1422.8 L2229.58,1422.12 L2228.31,1421.1 L2227.02,1420.08 L2225.74,1419.06 L2224.88,1418.37 L2223.6,1417.35 L2222.32,1416.33 L2221.03,1415.31 L2220.17,1414.63 L2218.89,1413.61 L2217.61,1412.59 L2216.33,1411.57 L2215.46,1410.89 L2214.19,1409.87 L2212.9,1408.85 L2211.61,1407.83 L2210.76,1407.15 L2209.48,1406.13 L2208.19,1405.11 L2206.91,1404.09 L2206.05,1403.41 L2204.77,1402.39 L2203.49,1401.37 L2202.2,1400.35 L2201.35,1399.67 L2200.07,1398.65 L2198.78,1397.62 L2197.5,1396.6 L2196.64,1395.92 L2195.36,1394.9 L2194.08,1393.88 L2192.79,1392.86 L2191.94,1392.18 L2190.65,1391.16 L2189.37,1390.14 L2188.08,1389.12 L2187.23,1388.44 L2185.95,1387.42 L2184.66,1386.4 L2183.38,1385.38 L2182.53,1384.7 L2181.24,1383.68 L2179.96,1382.66 L2178.67,1381.64 L2177.82,1380.96 L2176.54,1379.94 L2175.25,1378.91 L2173.97,1377.9 L2173.11,1377.21 L2171.83,1376.2 L2170.54,1375.17 L2169.26,1374.15 L2168.41,1373.47 L2167.12,1372.45 L2165.84,1371.43 L2164.55,1370.41 L2163.7,1369.73 L2162.42,1368.71 L2161.13,1367.69 L2159.85,1366.67 L2159,1365.99 L2157.71,1364.97 L2156.43,1363.95 L2155.14,1362.93 L2154.29,1362.25 L2153.01,1361.23 L2151.72,1360.2 L2150.44,1359.19 L2149.58,1358.51 L2148.3,1357.48 L2147.01,1356.47 L2143.64,1353.78 L2122.63,1337.08 L2133.76,958.761 L2139.38,960.452 L2142.88,961.503 L2169.61,964.571 L2177.61,963.972 L2208.25,957.683 L2208.79,957.572 L2229.22,954.569 L2245.74,954.754 L2250.72,956.581 L2259.96,963.762 L2273.14,971.024 L2276.21,972.999 L2279.43,976.479 L2291.82,992.924 L2305.04,1004.33 L2309.25,1005.42 L2321.41,1005.56 L2325.64,1005.61 L2334.19,1008.79 L2339.53,1008.71 L2343.86,1009.56 L2362.4,1009.23 L2386.06,1000.56 L2388.67,999.169 L2400.21,993.001 L2433.28,984.616 L2438.23,983.686 L2450.18,983.815 L2455.5,982.002 L2460.18,979.945 L2466.9,979.249 L2481.08,974.081 L2493.7,965.413 L2502.57,962.687 L2503,962.25 L2508.48,956.725 L2508.6,956.685 L2511.65,955.688 L2522.15,951.691 L2531.26,947.081 L2538.1,945.256 L2538.54,944.814 L2543.51,939.802 L2543.66,939.741 L2547.25,938.248 L2553.98,935.456 L2558.07,933.758 L2558.41,933.379 L2562.47,928.817 L2562.65,928.767 L2569.06,926.996 L2572.73,924.7 L2572.83,924.515 L2575.48,919.775 L2578.88,916.602 L2578.94,916.586 L2587.88,914.382 L2592.44,912.079 L2592.69,911.758 L2597.84,905.37 L2598.2,905.141 L2602.26,902.566 L2602.41,902.352 L2607.4,895.358 L2609.04,893.71 L2609.17,893.673 L2614.11,892.281 L2620.21,891.849 L2622.99,890.065 L2623.08,889.895 L2626.99,882.742 L2627.4,882.548 L2629.14,881.717 L2639.07,882.382 L2642.74,881.344 L2643.26,880.888 L2648.04,876.649 L2648.08,876.639 L2654.89,874.829 L2659.32,872.026 L2659.58,871.748 L2662.34,868.858 L2664.63,865.121 L2667.6,860.269 L2669.74,857.863 L2670.04,857.694 L2672.65,856.205 L2680.03,856.266 L2690.7,854.666 L2697.52,849.582 L2708.57,847.981 L2717.69,843.632 L2717.99,843.291 L2721.97,838.81 L2722.68,835.843 L2724.79,826.988 L2728.06,822.438 L2728.58,822.024 L2740.94,812.28 L2740.95,812.247 L2742.31,808.877 L2743.02,802.589 L2745.42,800.559 L2745.45,800.548 L2769.28,792.162 L2782.33,787.57 L2793.73,781.699 L2794.09,781.345 L2803.33,772.201 L2803.45,772.175 L2814.12,769.98 L2824.01,764.627 L2831.15,762.858 L2832.39,762.552 L2845.82,755.414 L2857.37,751.055 L2869.94,748.071 L2877.66,742.738 L2883.64,741.94 L2893.92,738.849 L2905.37,740.107 L2906.79,740.264 L2912.5,737.334 L2915.17,736.812 L2922.3,737.766 L2931.58,735.942 L2939.98,735.757 L2955.9,737.532"
         id="path47632" />
      <path
         vector-effect="none"
         fill-rule="evenodd"
         d="m 2614.57,1692.33 87.46,-5.46 16.34,-0.99 213.71,-12.96 311.09,-18.85 10.1,-0.8 263.2,-21.06 10.07,-0.6 263.23,-15.79 10.97,235.27 -191.35,196.5 v 0 l -327.96,311.53 v 0 l -103.86,103.84 -10.93,10.93 -0.61,0.61 h -495.94 l 0.11,-0.61 48.22,-306.07 -54.65,-103.84 -43.73,-5.47 v -11.79 l -399.02,-21 16.4,-98.38 -38.27,-240.48 -55.51,-333.08 3.37,2.69 1.29,1.01 1.28,1.03 0.86,0.68 1.28,1.01 1.29,1.03 1.28,1.02 0.85,0.68 1.29,1.02 1.28,1.02 1.29,1.02 0.85,0.68 1.28,1.02 1.29,1.02 1.28,1.02 0.85,0.68 1.29,1.02 1.28,1.02 1.29,1.02 0.85,0.68 1.28,1.02 1.29,1.03 1.28,1.01 0.86,0.69 1.28,1.01 1.29,1.03 1.28,1.02 0.85,0.68 1.29,1.02 1.28,1.02 1.29,1.02 0.85,0.68 1.28,1.02 1.29,1.02 1.28,1.02 0.85,0.68 1.29,1.02 1.28,1.02 1.29,1.02 0.85,0.68 1.29,1.02 1.28,1.02 1.28,1.02 0.86,0.68 1.28,1.02 1.29,1.03 1.28,1.02 0.85,0.68 1.29,1.02 1.28,1.02 1.28,1.02 0.86,0.68 1.28,1.02 1.29,1.02 1.28,1.02 0.85,0.68 1.29,1.02 1.29,1.02 1.27,1.02 0.87,0.68 1.28,1.02 1.28,1.02 1.28,1.02 0.86,0.68 1.29,1.02 1.28,1.02 1.28,1.02 0.86,0.69 1.28,1.02 1.29,1.02 1.27,1.02 0.86,0.68 1.29,1.02 1.28,1.02 1.28,1.02 0.86,0.68 1.28,1.02 1.29,1.02 1.28,1.02 0.86,0.68 1.28,1.02 1.28,1.02 1.28,1.02 0.86,0.68 1.29,1.02 1.28,1.02 1.28,1.02 0.86,0.68 1.28,1.02 1.29,1.02 1.27,1.03 0.86,0.68 1.29,1.02 1.28,1.02 1.28,1.02 0.86,0.68 1.28,1.02 1.29,1.02 1.28,1.02 0.86,0.68 1.28,1.02 1.28,1.02 1.28,1.02 0.86,0.68 1.29,1.02 1.28,1.02 1.28,1.02 0.86,0.68 1.28,1.02 1.28,1.02 1.29,1.02 0.85,0.69 1.28,1.02 1.29,1.02 1.28,1.02 0.86,0.68 1.28,1.02 1.28,1.02 1.29,1.02 0.86,0.68 1.28,1.02 1.28,1.02 1.28,1.02 0.86,0.68 1.28,1.02 1.29,1.02 1.28,1.02 0.86,0.68 1.28,1.02 1.28,1.02 1.29,1.02 0.86,0.68 1.27,1.02 1.29,1.03 1.28,1.02 0.86,0.68 1.28,1.02 1.28,1.02 1.29,1.02 0.86,0.68 1.28,1.02 1.28,1.02 1.29,1.02 0.85,0.68 1.28,1.02 1.29,1.02 1.28,1.02 0.86,0.68 1.28,1.02 1.28,1.02 1.29,1.02 0.86,0.68 1.27,1.02 1.29,1.02 1.28,1.02 0.86,0.69 1.28,1.02 1.28,1.02 1.29,1.02 0.86,0.68 1.28,1.02 1.28,1.02 1.29,1.02 0.86,0.68 1.28,1.02 1.28,1.02 1.29,1.02 0.85,0.68 1.28,1.02 1.29,1.02 1.28,1.02 0.86,0.68 1.28,1.02 1.28,1.02 1.29,1.02 1.28,1.02 1.28,1.02 0.86,0.69 1.28,1.02 1.29,1.02 1.28,1.02 0.86,0.68 1.28,1.02 1.28,1.02 1.28,1.02 0.86,0.68 1.29,1.02 1.28,1.02 1.28,1.02 0.86,0.68 1.28,1.02 1.29,1.02 1.27,1.02 0.86,0.68 1.29,1.02 1.28,1.02 1.28,1.02 0.86,0.69 1.28,1.01 1.29,1.03 1.28,1.02 0.86,0.68 1.28,1.02 1.28,1.02 1.28,1.02 0.86,0.68 1.29,1.02 1.28,1.02 1.28,1.02 0.86,0.68 1.28,1.02 1.29,1.02 1.28,1.02 0.85,0.68 1.29,1.02 1.28,1.02 1.28,1.02 0.86,0.68 1.28,1.02 1.28,1.02 1.29,1.02 0.86,0.69 1.28,1.02 1.28,1.02 1.28,1.02 0.86,0.68 1.28,1.02 1.29,1.02 1.28,1.02 0.86,0.68 1.28,1.02 1.28,1.02 1.29,1.02 0.86,0.68 1.27,1.02 1.29,1.02 1.28,1.02 0.86,0.68 1.28,1.02 1.28,1.02 1.29,1.02 0.86,0.68 1.28,1.02 1.28,1.03 1.29,1.02 0.85,0.68 1.28,1.02 1.29,1.02 1.28,1.02 0.86,0.68 1.28,1.02 1.28,1.02 1.29,1.02 0.86,0.68 1.27,1.02 1.29,1.02 1.28,1.02 0.86,0.68 1.28,1.02 1.28,1.02 1.29,1.02 0.86,0.68 1.28,1.02 1.28,1.02 1.29,1.02 0.86,0.69 1.27,1.02 1.29,1.02 1.29,1.02 0.85,0.68 1.28,1.02 1.29,1.02 1.28,1.02 0.86,0.68 1.28,1.02 1.28,1.02 1.29,1.02 0.85,0.68 1.28,1.02 1.29,1.02 1.28,1.02 0.86,0.68 1.28,1.02 1.29,1.02 1.28,1.02 0.85,0.68 1.29,1.02 1.28,1.03 1.29,1.02 0.85,0.68 1.28,1.02 1.29,1.02 1.28,1.02 0.85,0.68 1.29,1.02 1.28,1.02 1.29,1.02 0.85,0.68 1.29,1.02 1.28,1.02 1.28,1.02 0.86,0.68 1.28,1.02 1.29,1.02 1.28,1.02 0.85,0.68 1.29,1.02 1.28,1.02 1.29,1.02 0.85,0.69 1.28,1.02 1.29,1.02 1.28,1.02 0.85,0.68 1.29,1.02 1.28,1.02 1.29,1.02 0.85,0.68 1.29,1.02 1.28,1.02 1.28,1.02 0.86,0.68 1.28,1.02 1.29,1.02 1.28,1.02 0.85,0.68 1.29,1.02 1.28,1.02 1.28,1.02 0.86,0.68 1.28,1.02 0.86,0.69 1.28,1.02 0.86,0.68 1.28,1.02 1.17,0.92 0.91,0.72 1.19,0.95 1.19,0.95 1.2,0.96 1.2,0.95 1.19,0.95 1.2,0.95 1.19,0.95 1.19,0.95 1.2,0.95 23.72,18.86 38.26,-5.47"
         id="path47634"
         sodipodi:nodetypes="ccccccccccccccccccccccccccccccccccccccccccccccccccccccccccccccccccccccccccccccccccccccccccccccccccccccccccccccccccccccccccccccccccccccccccccccccccccccccccccccccccccccccccccccccccccccccccccccccccccccccccccccccccccccccccccccccccccccccccccccccccccccccccccccccccccccccccccccccccccccccccccccccccccccccccccccccccccccccccccccccccccccccccccccccccccccccccccccccccccccccccccccccccccccc" />
      <path
         vector-effect="none"
         fill-rule="evenodd"
         d="M2670.09,2474.5 L2657.58,2474.5 L2657.57,2472.83 L2656.54,2472.45 L2618.74,2458.76 L2602.71,2454.26 L2591.12,2450.14 L2533.75,2429.8 L2526.68,2427.99 L2525.74,2427.65 L2460.47,2404.67 L2453.02,2402.73 L2437.85,2397.11 L2433.17,2394.65 L2403.11,2385.79 L2394.95,2382.88 L2381.24,2377.99 L2379.33,2376.5 L2365.94,2373.13 L2363.02,2371.28 L2329.74,2360.6 L2305.89,2352.95 L2296.9,2349.03 L2277.31,2343.22 L2264.18,2338.62 L2253.81,2334.99 L2247.46,2332.77 L2232.42,2328.04 L2222.32,2325.9 L2220.15,2324.17 L2198.64,2317.11 L2178.79,2310.59 L2170.8,2306.55 L2165,2306.11 L2154.37,2302.47 L2149.81,2300.14 L2144.88,2299.32 L2133.25,2295.63 L2076.69,2277.69 L2068.32,2274.03 L2067.59,2273.85 L2059.1,2271.76 L2023.13,2258.41 L2002.01,2251.78 L1988.57,2247.56 L1936.42,2229.55 L1933.6,2228.58 L1928.67,2227.89 L1904.35,2218.81 L1870.75,2207.86 L1859.25,2204.11 L1850.65,2202.22 L1840.13,2198.1 L1833.3,2196.82 L1804.71,2187.34 L1738.94,2165.56 L1729.07,2162.3 L1710.87,2156.28 L1700.62,2153.8 L1672.94,2144.55 L1637.34,2132.66 L1625.28,2127.95 L1607.33,2122.3 L1570.88,2110.84 L1570.03,2110.43 L1565.16,2108.05 L1541.64,2100.41 L1497.29,2086.03 L1477.53,2081.01 L1463.39,2073.91 L1456.81,2072.76 L1450.32,2069.85 L1410.07,2055.76 L1401.69,2052.84 L1401.1,2052.65 L1401.11,2051.9 L1401.11,1757.91 L1477.64,1457.31 L1499.5,1429.99 L1514.1,1413.48 L1515.9,1413.59 L1723.61,1451.85 L2035.17,1501.04 L2007.84,1424.52 L2024.24,1364.4 L2058.81,1333.29 L2066.04,1326.79 L2122.63,1337.08 L2143.64,1353.78 L2199.15,1686.86 L2237.42,1927.34 L2221.02,2025.72 L2620.04,2046.72 L2620.04,2058.51 L2663.77,2063.98 L2718.42,2167.82 L2670.2,2473.89 L2670.09,2474.5"
         id="path47636" />
      <path
         vector-effect="none"
         fill-rule="evenodd"
         d="M1401.11,2051.9 L1401.1,2052.65 L1344.23,2033.99 L1327.8,2028.61 L1310.77,2022.63 L1307.71,2020.55 L1298.07,2018.33 L1278.64,2012.07 L1266.32,2008.1 L1230.61,1995.42 L1212.86,1990.15 L1198.74,1985.96 L1171.4,1976.28 L1161.63,1973.95 L1151.59,1970.24 L1146.89,1968.9 L1121.61,1961.63 L1080.8,1947.86 L1044.43,1935.59 L1041.9,1935.52 L1026.64,1929.78 L1017.31,1922.02 L1015.58,1920.59 L967.304,1873 L960.914,1865.78 L960.181,1864.9 L953.398,1856.77 L919.187,1821.66 L912.464,1814.79 L897.618,1799.61 L895.312,1798.28 L863.587,1765.86 L841.685,1743.49 L840.63,1741.5 L839.362,1741.15 L835.848,1736.57 L830.316,1732.04 L808.77,1731.72 L805.638,1731.67 L801.445,1730.75 L785.998,1724.17 L780.432,1722.66 L769.196,1719.62 L761.025,1716.27 L745.419,1708.44 L744.206,1707.49 L732.809,1698.66 L720.358,1684.73 L713.094,1670.57 L704.928,1652.1 L702.971,1647.68 L701.085,1636.66 L698.144,1629.56 L694.515,1625.75 L681.911,1616.85 L679.801,1613.01 L673.98,1607.48 L663.529,1600.71 L663.02,1599.79 L654.362,1596.6 L644.589,1595.43 L640.38,1593.89 L635.16,1568.69 L635.636,1567.97 L646.797,1550.22 L679.592,1490.1 L767.049,1386.26 L870.907,1238.69 L892.769,1216.83 L925.565,1222.3 L1045.82,1287.88 L1105.95,1205.9 L1149.67,1227.76 L1422.98,1408.12 L1514.1,1413.48 L1499.5,1429.99 L1477.64,1457.31 L1401.11,1757.91 L1401.11,2051.9"
         id="path47638" />
      <path
         vector-effect="none"
         fill-rule="evenodd"
         d="M1152.75,1122.7 L1105.95,1205.9 L1045.82,1287.88 L925.565,1222.3 L892.769,1216.83 L870.907,1238.69 L767.049,1386.26 L679.592,1490.1 L646.797,1550.22 L635.636,1567.97 L635.16,1568.69 L635.122,1568.5 L631.925,1550.4 L624.393,1507.82 L623.906,1497.53 L620.588,1482.38 L617.243,1467.32 L576.216,1445.44 L568.93,1442.45 L565.47,1441.03 L558.769,1436.28 L556.69,1436.53 L556.238,1436.59 L555.813,1439.98 L555.812,1439.99 L552.341,1443.46 L547.268,1443.45 L539.889,1442.1 L531.423,1437.89 L525.743,1433.5 L523.792,1431.16 L518.588,1417.83 L512.467,1402.14 L510.63,1399.42 L503.568,1381.31 L492.822,1353.75 L486.35,1337.16 L482.661,1331.34 L476.84,1326 L473.128,1323.55 L465.159,1317.33 L445.81,1298.54 L445.137,1297.94 L411.877,1268.11 L403.208,1258.74 L399.404,1253.37 L396.687,1248.74 L385.356,1229.42 L377.06,1207.35 L370.161,1188.99 L369.297,1185.52 L363.066,1160.43 L347.341,1131.68 L343.968,1123.56 L343.536,1121.85 L338.371,1101.32 L334.419,1096.45 L330.161,1093.59 L322.083,1091.4 L315.075,1086.72 L311.987,1082.76 L310.358,1076.19 L307.609,1068.5 L303.662,1057.44 L303.575,1049.89 L304.674,1046.27 L309.014,1039.58 L314.611,1033.67 L314.791,1033.53 L325.215,1025.36 L325.317,1025.2 L333.998,1011.22 L349.226,986.687 L361.273,970.994 L366.154,963.435 L373.468,954.798 L373.681,954.503 L389.893,931.541 L397.972,923.178 L402.623,914.361 L406.023,910.541 L409.204,904.96 L414.277,898.614 L427.674,881.872 L439.305,863.162 L455.798,843.327 L459.379,836.121 L475.71,810.241 L619.61,582.196 L622.218,578.821 L626.345,578.411 L633.968,577.363 L637.047,578.3 L639.412,581.39 L641.731,582.47 L644.016,582.042 L644.141,581.671 L644.612,580.27 L644.181,578.143 L640.853,571.933 L639.293,570.586 L632.364,568.601 L633.349,567.072 L633.607,567.023 L635.634,566.644 L642.073,569.518 L644.95,572.723 L648.284,579.042 L649.078,580.549 L651.852,590.291 L657.846,601.721 L659.642,602.184 L664.644,598.053 L665.813,599.033 L670.49,608.608 L688.191,625.062 L690.532,627.148 L700.935,625.163 L710.545,627.594 L712.369,629.44 L712.849,633.828 L716.462,635.886 L721.352,638.043 L725.655,642.475 L728.08,642.674 L738.193,639.19 L742.945,635.193 L749.24,631.791 L751.923,632.111 L752.558,633.749 L752.599,633.856 L746.119,637.834 L745.812,638.022 L741.225,643.775 L740.357,650.58 L738.925,654.883 L739.396,658.894 L742.188,664.113 L742.805,669.001 L746.529,676.084 L746.686,688.899 L747.987,701.562 L750.041,708.055 L751.408,710.744 L758.958,725.583 L759.966,730.84 L761.834,734.696 L765.973,737.624 L768.022,738.208 L771.999,737.268 L771.51,737.049 L765.262,734.246 L763.698,732.645 L764.337,732.313 L765.46,731.728 L779.553,735.703 L780.725,736.934 L781.834,740.816 L785.689,754.297 L791.025,765.494 L796.163,773.429 L804.028,789.725 L813.012,802.101 L818.851,810.149 L830.498,830.891 L837.037,839.174 L845.5,854.078 L850.225,860.411 L855.192,867.072 L858.244,870.144 L875.988,888.005 L896.86,911.776 L908.176,924.667 L935.073,952.394 L945.313,961.863 L984.897,995.25 L997.78,1007.06 L999.79,1008.9 L1011.2,1013.95 L1020.72,1019.42 L1049,1042.11 L1055.05,1045.93 L1058.66,1048.59 L1063.01,1054.53 L1068.19,1061.59 L1075.95,1068.73 L1083.68,1074.11 L1087.66,1076.3 L1094.92,1077.41 L1100.17,1079.2 L1104.67,1082 L1124.16,1097.84 L1133.67,1103.82 L1136.65,1106.9 L1142.6,1112.79 L1151.56,1121.67 L1152.75,1122.7"
         id="path47640" />
      <path
         vector-effect="none"
         fill-rule="evenodd"
         d="M661.925,590.001 L659.948,590.044 L671.581,579.562 L673.449,574.649 L675.686,563.879 L676.055,564.14 L677.694,565.299 L675.007,578.027 L673.623,580.909 L673.589,580.981 L661.925,590.001"
         id="path47642" />
      <path
         vector-effect="none"
         fill-rule="evenodd"
         d="M732.63,601.106 L725.637,604.674 L725.359,600.759 L723.147,598.67 L727.567,591.161 L727.918,590.998 L729.836,590.107 L733.27,589.782 L735.207,590.871 L735.899,593.37 L734.853,597.916 L732.826,600.825 L732.63,601.106"
         id="path47644" />
      <path
         vector-effect="none"
         fill-rule="evenodd"
         d="M726.083,564.676 L723.568,566.238 L723.02,564.49 L723.966,561.203 L727.818,556.722 L728.063,556.594 L730.841,555.148 L731.763,556.511 L726.233,564.461 L726.083,564.676"
         id="path47646" />
    </g>
    <g
       font-family=".SF NS Text"
       font-weight="400"
       stroke-width="1"
       fill="none"
       stroke="#000000"
       transform="matrix(11.8081,0,0,11.8081,-299.197,-238.265)"
       stroke-linecap="square"
       stroke-linejoin="bevel"
       font-size="54.1667"
       font-style="normal"
       stroke-opacity="1"
       id="g47650" />
    <g
       font-family=".SF NS Text"
       font-weight="400"
       stroke-width="1"
       fill="none"
       stroke="#000000"
       transform="matrix(11.8081,0,0,11.8081,-299.197,-238.265)"
       stroke-linecap="square"
       stroke-linejoin="bevel"
       font-size="54.1667"
       font-style="normal"
       stroke-opacity="1"
       id="g47652" />
    <g
       font-family=".SF NS Text"
       font-weight="400"
       stroke-width="1"
       fill="none"
       stroke="#000000"
       transform="matrix(11.8081,0,0,11.8081,-299.197,-238.265)"
       stroke-linecap="square"
       stroke-linejoin="bevel"
       font-size="54.1667"
       font-style="normal"
       stroke-opacity="1"
       id="g47654" />
    <g
       font-family=".SF NS Text"
       font-weight="400"
       stroke-width="1"
       fill="none"
       stroke="#000000"
       transform="matrix(1,0,0,1,0,0)"
       stroke-linecap="square"
       stroke-linejoin="bevel"
       font-size="54.1667"
       font-style="normal"
       stroke-opacity="1"
       id="g47656" />
    <g
       font-family=".SF NS Text"
       font-weight="400"
       stroke-width="1"
       fill="none"
       stroke="#000000"
       transform="matrix(11.8081,0,0,11.8081,-299.197,-238.265)"
       stroke-linecap="square"
       stroke-linejoin="bevel"
       font-size="54.1667"
       font-style="normal"
       stroke-opacity="1"
       id="g47658" />
    <g
       font-family=".SF NS Text"
       font-weight="400"
       stroke-width="1"
       fill="none"
       stroke="#000000"
       transform="matrix(11.8081,0,0,11.8081,-299.197,-238.265)"
       stroke-linecap="square"
       stroke-linejoin="bevel"
       font-size="54.1667"
       font-style="normal"
       stroke-opacity="1"
       id="g47660" />
    <g
       font-family=".SF NS Text"
       font-weight="400"
       stroke-width="1"
       fill="none"
       stroke="#000000"
       transform="matrix(1,0,0,1,0,0)"
       stroke-linecap="square"
       stroke-linejoin="bevel"
       font-size="54.1667"
       font-style="normal"
       stroke-opacity="1"
       id="g47662" />
  </g>
</svg>
